/* XPM */
static char *render_luxSunsky[] = {
/* columns rows colors chars-per-pixel */
"32 32 256 2",
"   c #2E4448",
".  c #374E52",
"X  c #415559",
"o  c #47595D",
"O  c #495A60",
"+  c #787B6F",
"@  c #747773",
"#  c #A6742C",
"$  c #AE8F15",
"%  c #B59319",
"&  c #AD8124",
"*  c #AC833B",
"=  c #CCA917",
"-  c #CCAA19",
";  c #C9A21C",
":  c #D0AC18",
">  c #DCB619",
",  c #DFB91A",
"<  c #E5BD1C",
"1  c #C49427",
"2  c #CC9A3B",
"3  c #C59237",
"4  c #D49B33",
"5  c #DC9F36",
"6  c #D49D3C",
"7  c #D99F38",
"8  c #D7A32A",
"9  c #DCA236",
"0  c #D9A13D",
"q  c #DCA139",
"w  c #DABC3A",
"e  c #E6AE2E",
"r  c #EEBD24",
"t  c #ECBD24",
"y  c #E8B02D",
"u  c #ECB828",
"i  c #E5A932",
"p  c #E4AC30",
"a  c #E4A733",
"s  c #ECBF35",
"d  c #E7C01D",
"f  c #E9C11B",
"g  c #ECC41B",
"h  c #F1C61D",
"j  c #F3C91C",
"k  c #F4CA1C",
"l  c #F4CA1D",
"z  c #F4C91D",
"x  c #E7C022",
"c  c #EBC526",
"v  c #F0C121",
"b  c #F2C520",
"n  c #F4CC27",
"m  c #F5CF31",
"M  c #F1CC3F",
"N  c #F1C635",
"B  c #9D8A50",
"V  c #BD9645",
"C  c #A49155",
"Z  c #B49356",
"A  c #B99C5E",
"S  c #888B78",
"D  c #808375",
"F  c #9EA07F",
"G  c #C99C4C",
"H  c #D7A243",
"J  c #D3A34E",
"K  c #D8A842",
"L  c #C9A452",
"P  c #D4AC56",
"I  c #D3A95C",
"U  c #DCAD59",
"Y  c #D3B25F",
"T  c #E1A84B",
"R  c #E2B44E",
"E  c #E2A751",
"W  c #E1B25D",
"Q  c #D0A761",
"!  c #D6AD62",
"~  c #D8AE63",
"^  c #D7B069",
"/  c #DBB269",
"(  c #D7B271",
")  c #D9B472",
"_  c #DAB87C",
"`  c #DAB87A",
"'  c #DABB73",
"]  c #E5B060",
"[  c #EBBD6B",
"{  c #E9BA75",
"}  c #DDC156",
"|  c #F3CF54",
" . c #F7D857",
".. c #F6D75C",
"X. c #D6C074",
"o. c #F7D864",
"O. c #F8DF75",
"+. c #F0D97D",
"@. c #F9E17D",
"#. c #838683",
"$. c #868889",
"%. c #8B8F8F",
"&. c #8E9087",
"*. c #9A9F8C",
"=. c #959A88",
"-. c #8B8F98",
";. c #949790",
":. c #939599",
">. c #99A08B",
",. c #9FA29B",
"<. c #AFA085",
"1. c #A6A789",
"2. c #A0A381",
"3. c #BBBC8C",
"4. c #A2A792",
"5. c #A7A997",
"6. c #AAAD9D",
"7. c #B7BA9D",
"8. c #BEBF94",
"9. c #989EB9",
"0. c #969DB2",
"q. c #969AA5",
"w. c #9DA1A5",
"e. c #A9AEAD",
"r. c #AFB2A4",
"t. c #B9BBA5",
"y. c #B7B7A6",
"u. c #A3A8B2",
"i. c #ABB1B7",
"p. c #B4B6B3",
"a. c #BDBEBB",
"s. c #B7BAB6",
"d. c #C6B38D",
"f. c #DCBD85",
"g. c #D0BE96",
"h. c #BCC1B6",
"j. c #DEC18D",
"k. c #D9CA9A",
"l. c #D1D195",
"z. c #EFCA85",
"x. c #E1C79A",
"c. c #EDDC95",
"v. c #E7D68A",
"b. c #F8E599",
"n. c #C7C7A6",
"m. c #C6C4AE",
"M. c #CEC9AB",
"N. c #D4CFAD",
"B. c #DCD8AD",
"V. c #C3C1B3",
"C. c #C6CAB7",
"Z. c #CBCBBA",
"A. c #C5C7BA",
"S. c #D1CDB5",
"D. c #D2CAB3",
"F. c #D2CFB8",
"G. c #CDD0B3",
"H. c #DBD6B3",
"J. c #DBDBB6",
"K. c #D9D6BB",
"L. c #D3D0B9",
"P. c #E3CCA4",
"I. c #E5CFAA",
"U. c #E5D1AB",
"Y. c #EEDEA8",
"T. c #EFDBA1",
"R. c #F5DDA4",
"E. c #E8D7B7",
"W. c #E7D6BA",
"Q. c #E7D6BC",
"!. c #E9D7B9",
"~. c #EEEDA3",
"^. c #F9E7A8",
"/. c #FAE9A0",
"(. c #FCFAAE",
"). c #E5E2B5",
"_. c #F1EFB8",
"`. c #FBEDB4",
"'. c #F6F3B3",
"]. c #F9F7B1",
"[. c #FEFBB5",
"{. c #FEFBBC",
"}. c #A9AFC2",
"|. c #B2B6C3",
" X c #B9BBCB",
".X c #BEC1CB",
"XX c #C3C6CD",
"oX c #CCCDCD",
"OX c #C6C8C2",
"+X c #D1CFC7",
"@X c #D1CFCB",
"#X c #CDD2C4",
"$X c #D4D2C2",
"%X c #DAD6C2",
"&X c #D3D5CC",
"*X c #DEDACB",
"=X c #DEDAC2",
"-X c #C3C3D0",
";X c #DFDDD1",
":X c #DEDEDE",
">X c #DCDBD8",
",X c #D5D5D5",
"<X c #E1DCC6",
"1X c #E2DECE",
"2X c #E6E2C6",
"3X c #E5E1CC",
"4X c #E8E3CB",
"5X c #EBE6CB",
"6X c #ECE5C8",
"7X c #F3EDCF",
"8X c #F3EDCD",
"9X c #F1E7C2",
"0X c #FFFEC1",
"qX c #FFFEC6",
"wX c #FFFFC9",
"eX c #FCF2CA",
"rX c #E6E2D1",
"tX c #EAE6D5",
"yX c #ECE9D7",
"uX c #F3EED7",
"iX c #F2ECD2",
"pX c #F2EDD9",
"aX c #F4EDDD",
"sX c #F7F0D3",
"dX c #F8F1D3",
"fX c #F9F2D5",
"gX c #FCF3D2",
"hX c #F7F2DA",
"jX c #F6F1DE",
"kX c #F9F3DC",
"lX c #E6E6E6",
"zX c #EBEBEB",
"xX c #F5EFE6",
"cX c #F7F3E2",
"vX c #FCF8E7",
"bX c #F7F3EE",
"nX c #F9F5ED",
"mX c #FCF8E8",
"MX c #FDF9E9",
"NX c #FEFAEA",
"BX c #FDF9ED",
"VX c #FAF6E4",
"CX c #F1F1F1",
"ZX c #F3F3F3",
"AX c #F6F6F6",
"SX c #FCFBF7",
"DX c #FBF9F4",
"FX c #F8F8F8",
"GX c #FBFBFB",
"HX c #FEFDF9",
"JX c gray99",
"KX c #FDFDFD",
"LX c #FEFEFE",
"PX c gray100",
"IX c #FFFFFE",
"UX c #FFFFFD",
/* pixels */
"PXPXPXPXPXPXPXPXPXPXPXPXPXPXPXPXPXPXPXPXPXPXPXPXPXPXPXPXPXPXPXPX",
"PXPXPXPXPXPXPXPXPXPXPXPXPXP.U ~ DXPXPXPXPXPXPXPXPXPXPXPXPXPXPXPX",
"PXPXPXPXPXPXPXPXPXPXPXPX!.R.eXM H PXPXPXPXPXPXPXPXPXPXPXPXPXPXPX",
"PXPXPXPXPXPXPXPXPXPXPXPX~ PXb k p PXPXPXPXPXPXPXPXPXPXPXPXPXPXPX",
"PXPXPXPXPXPXPXPXPXPXPXPX) o.k k a PXPXPXPXPXPXPXPXPXPXPXPXPXPXPX",
"PXPXPXPXPXPXPXPXPXPXPXPXDX5 u e _ PXPXPXPXPXPXPXPXPXPXPXPXPXPXPX",
"PXPXPXPXPXPXPXPXPXPXPXPXPXPXkXBXPXPXbX! 0 J E.PXPXPXPXPXPXPXPXPX",
"PXPXPXPXPXPXPXPXPXPXPXPXPXPXPXPXPXxXE gXDX..e f.PXPXPXPXPXPXPXPX",
"PXPXPXPXPXPXPXE.U I HXPXPXPXPXPXPXJ PXo.k k k i nXPXPXPXPXPXPXPX",
"PXPXPXPXPXPXPX{ `.N ( PXPXPXPXPXPX] PXk k k k r U.PXPXPXPXPXPXPX",
"PXPXPXPXPXPXPXz. .h ~ PXPXPXPXPXPX[ HXk k k k v ` PXPXPXPXPXPXPX",
"PXPXPXPXPXPXPX^ a 9 aXPXPXPXPXPXPX0 n k k k k k y 7 q 7 ( DXPXPX",
"PXPXPXPXPXPXPXPXPXPXPXPXPXPXPXPXPXW.e k k k k k @.PXHXO.r 9 pXPX",
"PXPXPXPXPXPXPXPXmXmXvXGXGXGXGXPXPXPXP.9 i r k /.NXm k k k h 6 PX",
"PXPXPXPXPXvXVXkXkXhXhXjXcXP W 0 !.GXPXPXPX^ | PXm k k k k k u P.",
"PXx.R.T hXuXsXdX7X8X8XfX' Y.+.c 4 FXGXPXPXU.b.b.k k k k k h v I ",
"PX/ b.r c.7XD.m.M.N.H.).Y sXc f 8 ZXFXGXPXf.^.@.k k k k k k k H ",
"PXj.p 5 <Xm.y.+ D >.l.~.v.} c x 4 zXCXGXGXI.r b k k k k k k b I ",
"PXvXaXiXm.+ S F 3.~.[.[.(.X.L 9 k.yXzXZXnX! h k k k k k k k u P.",
"PXcXfXF.r.@ =.1.8.(.qXqXqX].H.K.iXrXd.2 R s k k k k k k k b 6 PX",
"vXpXiXC.#.#.&.*.7.].0XwX{.).5.L.dXg.L lXc.| k k k k k k r q aXPX",
"vXuX4XV.$.%.;.5.7.B.{.0X'.n.6.G.5X2 1Xw < g k k e 0 9 6 _ SXPXPX",
"vXuX<XV.-.:.,.r.t.C.J.J.G.h.r.Z.4XP 1X: > f j r _ PXPXPXPXPXPXPX",
"mXpXtXZ.q.w.e.y.h.C.C.C.C.h.p.#XtXI H.= > f j < U.PXPXPXPXPXPXPX",
"mXpXiX+Xu.i.i.a.A.#X#X#X#XOXs.*XiXV % - > f g a nXPXPXPXPXPXPXPX",
"FXcXhX*X}. X XXXoX&X&X&X&XoX;X3XiXD.# ; > < e f.PXPXPXPXPXPXPXPX",
"FXcXpXiX+X9.0.|..X-XXX.X|.i.Z.9X<X%Xa.Z 3 G Q.PXPXPXPXPXPXPXPXPX",
"GXFXaXiX=Xr.  X O o o X . B k.K A s.oX:XzXFXGXPXPXPXPXPXPXPXPXPX",
"PXFXcXyX5X2Xt.4.=.=.>.4.C 2Xw ; 1 OX,XlXCXGXJXPXPXPXPXPXPXPXPXPX",
"PXHXCXaXtX4XdX2XK.S.K.6XP B.- : # &X:XzXZXGXPXPXPXPXPXPXPXPXPXPX",
"PXGXGXCXlXyX1X<X<X<X=X%Xd.1 $ % * :XlXZXGXHXPXPXPXPXPXPXPXPXPXPX",
"PXPXGXAXCXlX:XtX1X*X*X*XA.<.* Z >XlXZXFXGXPXPXPXPXPXPXPXPXPXPXPX"
};
