/* XPM */
static char *render_lux_marble[] = {
/* columns rows colors chars-per-pixel */
"32 32 256 2",
"   c #3D0000",
".  c #450000",
"X  c #430101",
"o  c #4D0909",
"O  c #5C1D1D",
"+  c #632323",
"@  c #682727",
"#  c #6A2C2C",
"$  c #6E3434",
"%  c #713636",
"&  c #723838",
"*  c #783E3E",
"=  c #A7742C",
"-  c #824E4E",
";  c #855353",
":  c #885757",
">  c #8A5959",
",  c #8F6161",
"<  c #936464",
"1  c #9F7878",
"2  c #9B7171",
"3  c #A07676",
"4  c #AE8F15",
"5  c #B69319",
"6  c #AD8124",
"7  c #AC833B",
"8  c #CEAB18",
"9  c #CBA61A",
"0  c #D1AD1C",
"q  c #DDB71A",
"w  c #DEB819",
"e  c #E2BC1A",
"r  c #E8BE1D",
"t  c #C79A25",
"y  c #C3912A",
"u  c #C59238",
"i  c #CA9A3D",
"p  c #D59C34",
"a  c #DC9F36",
"s  c #D39C3D",
"d  c #D39C3B",
"f  c #D99F38",
"g  c #D8A42A",
"h  c #DEA037",
"j  c #DBA039",
"k  c #DAA13D",
"l  c #DFA23A",
"z  c #D8BA3D",
"x  c #E6AE2E",
"c  c #EEBD24",
"v  c #EFBF23",
"b  c #E8B02D",
"n  c #ECB828",
"m  c #EEBF29",
"M  c #E5A932",
"N  c #E4AB32",
"B  c #E3A838",
"V  c #ECBF35",
"C  c #EAC11B",
"Z  c #ECC31D",
"A  c #F1C61E",
"S  c #F3C91C",
"D  c #F1C81C",
"F  c #F4CA1C",
"G  c #F4CA1D",
"H  c #F4C91D",
"J  c #EBC42B",
"K  c #EAC226",
"L  c #F0C121",
"P  c #F2C520",
"I  c #F3CC2C",
"U  c #F3CB24",
"Y  c #F5CF31",
"T  c #F1CC3F",
"R  c #F1C635",
"E  c #B69458",
"W  c #B39155",
"Q  c #B18F7E",
"!  c #BDA062",
"~  c #C09846",
"^  c #CA9C4C",
"/  c #D7A243",
"(  c #DAA240",
")  c #D3A34E",
"_  c #DFB64E",
"`  c #D6AC57",
"'  c #D7AA58",
"]  c #DEAF5B",
"[  c #D9AA56",
"{  c #DAB25B",
"}  c #C9A755",
"|  c #E2A84B",
" . c #E3B44E",
".. c #E2A751",
"X. c #E2B25D",
"o. c #D0A761",
"O. c #D7AE63",
"+. c #D4AB62",
"@. c #D8AE63",
"#. c #D7B069",
"$. c #D8B36F",
"%. c #DDB96F",
"&. c #DDB163",
"*. c #D7B271",
"=. c #D9B472",
"-. c #DDBD77",
";. c #DAB87C",
":. c #DAB87A",
">. c #E5B060",
",. c #E5B96C",
"<. c #E9BA75",
"1. c #E7C640",
"2. c #F3CF54",
"3. c #F7D857",
"4. c #F6D75C",
"5. c #F7D864",
"6. c #EBCB71",
"7. c #F8DF75",
"8. c #F1DB7F",
"9. c #F9E17D",
"0. c #A98383",
"q. c #A98585",
"w. c #AD8A8A",
"e. c #B08D8D",
"r. c #B79A88",
"t. c #BA9A89",
"y. c #B69898",
"u. c #BA9B9B",
"i. c #B19292",
"p. c #B0A085",
"a. c #BEA3A3",
"s. c #BBBBBB",
"d. c #C7B18B",
"f. c #DCBF86",
"g. c #DCBC83",
"h. c #CCBB94",
"j. c #D1BD95",
"k. c #C1A7A7",
"l. c #C6AFAF",
"z. c #C2AAAA",
"x. c #C6B8A6",
"c. c #CBB3B3",
"v. c #CCB7B7",
"b. c #C0BEBA",
"n. c #D1BEBE",
"m. c #DEC18D",
"M. c #DCC191",
"N. c #EFCA85",
"B. c #E1C084",
"V. c #E1C79A",
"C. c #EEDD95",
"Z. c #F7E19B",
"A. c #F8E69D",
"S. c #FAE99F",
"D. c #DAC6A7",
"F. c #D7C4B2",
"G. c #DBC7B6",
"H. c #DECDBB",
"J. c #DCC9B9",
"K. c #D4CCB4",
"L. c #E3CDA6",
"P. c #E3CDA4",
"I. c #E5CFAA",
"U. c #E2CFAF",
"Y. c #E5D1AB",
"T. c #F3DEA3",
"R. c #F4DCA9",
"E. c #E8D7B7",
"W. c #E7D6BA",
"Q. c #E7D6BC",
"!. c #E0D0BF",
"~. c #E9D7B9",
"^. c #E4DBB7",
"/. c #FAE9A0",
"(. c #F3E2AB",
"). c #F9E7A8",
"_. c #FBEDB4",
"`. c #C4C4C4",
"'. c #CDCDCD",
"]. c #D4C2C2",
"[. c #D7C7C7",
"{. c #D8C6C6",
"}. c #DACACA",
"|. c #DBCCCC",
" X c #DDCDCD",
".X c #DECECE",
"XX c #DBD7C7",
"oX c #D3D3D3",
"OX c gray87",
"+X c #DCDBD9",
"@X c #E3D4C4",
"#X c #EADCC4",
"$X c #E2DECE",
"%X c #E3DEC9",
"&X c #E3D6D6",
"*X c #E0D2D2",
"=X c #E5DADA",
"-X c #E9DDDD",
";X c #EDE3CC",
":X c #EDE2C6",
">X c #F0E7CD",
",X c #F2E9CF",
"<X c #F6EAC4",
"1X c #FCF2CA",
"2X c #EAE5D2",
"3X c #ECE4D1",
"4X c #EFEAD7",
"5X c #EEEAD9",
"6X c #F1E7D6",
"7X c #F0E6D1",
"8X c #F2EAD2",
"9X c #F5EED2",
"0X c #F2E9D4",
"qX c #F5EDD5",
"wX c #F2EAD9",
"eX c #F3ECDB",
"rX c #F9F1D6",
"tX c #FBF3D6",
"yX c #F9F1D5",
"uX c #FCF4D6",
"iX c #FBF2D3",
"pX c #F6F1DF",
"aX c #F7F0D9",
"sX c #F9F3DE",
"dX c #FAF4DE",
"fX c #FBF2DA",
"gX c #E7E7E7",
"hX c gray90",
"jX c #EBE1E1",
"kX c #ECE3E3",
"lX c #ECE5E5",
"zX c #EAEAEA",
"xX c #EDEDED",
"cX c #F5EFE6",
"vX c #F5F1E1",
"bX c #F8F3E2",
"nX c #FBF7E6",
"mX c #F7F3EE",
"MX c #F9F5ED",
"NX c #FDF9E9",
"BX c #FEFAEA",
"VX c #FCF9EB",
"CX c #F2F2F2",
"ZX c #F5F5F5",
"AX c #FCFBF7",
"SX c #FCF9F3",
"DX c #F9F9F9",
"FX c #FBFBFB",
"GX c #FAF9F8",
"HX c #FEFDF9",
"JX c gray99",
"KX c #FDFDFD",
"LX c #FEFEFE",
"PX c gray100",
"IX c #FFFFFE",
"UX c #FFFFFD",
/* pixels */
"PXPXPXPXPXPXPXPXPXPXPXPXPXPXPXPXPXPXPXPXPXPXPXPXPXPXPXPXPXPXPXPX",
"PXPXPXPXPXPXPXPXPXPXPXPXPXL.[ @.AXPXPXPXPXPXPXPXPXPXPXPXPXPXPXPX",
"PXPXPXPXPXPXPXPXPXPXPXPX~.T.1XT / PXPXPXPXPXPXPXPXPXPXPXPXPXPXPX",
"PXPXPXPXPXPXPXPXPXPXPXPXO.PXU F x PXPXPXPXPXPXPXPXPXPXPXPXPXPXPX",
"PXPXPXPXPXPXPXPXPXPXPXPX=.5.F F M PXPXPXPXPXPXPXPXPXPXPXPXPXPXPX",
"PXPXPXPXPXPXPXPXPXPXPXPXSXj n x ;.PXPXPXPXPXPXPXPXPXPXPXPXPXPXPX",
"PXPXPXPXPXPXPXPXPXPXPXPXPXPXfXVXPXPXmX' ( ) E.PXPXPXPXPXPXPXPXPX",
"PXPXPXPXPXPXPXPXPXPXPXPXPXPXPXPXPXcX..iXSX4.x g.PXPXPXPXPXPXPXPX",
"PXPXPXPXPXPXPXE.] ` AXPXPXPXPXPXPX) PX5.F F F M MXPXPXPXPXPXPXPX",
"PXPXPXPXPXPXPX<._.R $.PXPXPXPXPXPX>.PXF F F F v I.PXPXPXPXPXPXPX",
"PXPXPXPXPXPXPXN.3.A O.PXPXPXPXPXPX,.HXF F F F L :.PXPXPXPXPXPXPX",
"PXPXPXPXPXPXPX$.M a eXPXPXPXPXPXPXl U F F F F F b f l f *.SXPXPX",
"PXPXPXPXPXPXPXPXPXPXPXPXPXPXPXPXPXQ.b F S S F F 9.PXPX7.v a wXPX",
"PXPXPXPXPXPXPXPXJXJXFXJXFXFXJXPXPXPXP.a M c F S.NXY F F F A s PX",
"PXPXPXPXPXNXnXbXbXdXsXsXbX` X.k W.PXPXPXPX#.2.PXY F F F F F n L.",
"PXV.R.| fXsXtXuXrXrXrXuX-.(.N.J p FXFXPXPXY.Z.S.F F F F F F L ' ",
"PX&.A.m (.tX0X3X6X6X5XeX=.rXJ C g CXFXFXJXM.).7.F F F F F F F / ",
"PXV.N B iXwX6XjXlXlXlXlXI.6.I K p zXCXFXJXY.v F F F F F F F L o.",
"PXNXdXtXwXlXjXkX*X|.-X|.].m.%.B D.5XzXZXSX+.P F F F F F F F c L.",
"PXnXtX>XwXkX-X-X&X[.|.F.n.}.@X#X,X2Xd.s  .R D F F F F F F P s PX",
"nXbXrXH.0.|.=Xc.q.l.|.|.[.k.# r.iXj.} hXC.T D D F F F F v f eXPX",
"NXqX8XH.@ < 0.- . % c.|.c.&   t.:Xi '.z e Z D D x k f f ;.FXPXPX",
"nXaX8X@X: . , k.3 < * : - o + !.>X` `.8 e C D L ;.PXPXPXPXPXPXPX",
"nX8X>XG.O + u.k.z.y.@   X X - H.,X' F.9 w C D K Y.PXPXPXPXPXPXPX",
"NX7X<X@Xe.+ ; q.k.y.1 ; ; & - F.rX~ 5 9 q C Z M MXPXPXPXPXPXPXPX",
"FXwXiXx.; + # > 0.v.n.a.l.i.J.;X9XK.= 9 q r x f.PXPXPXPXPXPXPXPX",
"FXbX0X#XQ $ # 0.{.|.}.}.|.n.U.<X%XXXb.E u ^ W.PXPXPXPXPXPXPXPXPX",
"JXZXpXaX#Xx.2 ].=XjX*X].3XB.R._ E s.'.OXxXZXFXPXPXPXPXPXPXPXPXPX",
"JXDXvXwXiX9X7X6X2X5XwX4Xm.qXT 0 y `.oXhXxXFXPXPXPXPXPXPXPXPXPXPX",
"PXFXZXeX6X8XtXrX9X9XqXyX{ ^.9 8 6 oXOXxXZXFXPXPXPXPXPXPXPXPXPXPX",
"PXFXDXCXgX5X3X3X4X2X;X;Xh.t 4 5 7 OXzXCXFXPXPXPXPXPXPXPXPXPXPXPX",
"PXPXFXZXCXgXOX2X$XXXXXs.s.p.7 W +XzXCXFXFXPXPXPXPXPXPXPXPXPXPXPX"
};
