/* XPM */
static char *render_lux_checkerboard_d[] = {
/* columns rows colors chars-per-pixel */
"32 32 256 2",
"   c black",
".  c #0D0D0D",
"X  c #0C0C0B",
"o  c #10100F",
"O  c #121212",
"+  c #383737",
"@  c #363838",
"#  c #3D3D3D",
"$  c #3F403E",
"%  c #424242",
"&  c #525050",
"*  c #747374",
"=  c #7D7D7D",
"-  c #787879",
";  c #A27725",
":  c #AA772D",
">  c #816E44",
",  c #817E6E",
"<  c #807E7E",
"1  c #BA961A",
"2  c #B29216",
"3  c #B18425",
"4  c #AC853E",
"5  c #B18639",
"6  c #B78F3D",
"7  c #CFAC18",
"8  c #CDA61C",
"9  c #D1AD18",
"0  c #D2AF1E",
"q  c #D4B018",
"w  c #DFB91A",
"e  c #E3BC1A",
"r  c #E9BF1D",
"t  c #C79A24",
"y  c #C79438",
"u  c #C29436",
"i  c #D69C35",
"p  c #DC9F36",
"a  c #DB9F37",
"s  c #D39C3D",
"d  c #D49D3B",
"f  c #D99F38",
"g  c #DAA52B",
"h  c #DEA037",
"j  c #DBA039",
"k  c #DBA23D",
"l  c #DBBC3E",
"z  c #E6AE2E",
"x  c #EEBD24",
"c  c #EFBF23",
"v  c #E8B02D",
"b  c #ECB828",
"n  c #E4A733",
"m  c #E5A832",
"M  c #E6AB30",
"N  c #E4AB32",
"B  c #E2AB3F",
"V  c #ECBF35",
"C  c #EBC31B",
"Z  c #ECC41C",
"A  c #F2C61F",
"S  c #F3C91C",
"D  c #F1C81C",
"F  c #F4CA1C",
"G  c #F4CA1D",
"H  c #F4C91D",
"J  c #EBC329",
"K  c #EEC82C",
"L  c #F0C121",
"P  c #F2C520",
"I  c #F3CB24",
"U  c #F5CE2F",
"Y  c #F1C635",
"T  c #F5CF31",
"R  c #F2CD3F",
"E  c #AA8E4D",
"W  c #BD9744",
"Q  c #A58E5C",
"!  c #B99956",
"~  c #B99759",
"^  c #B59356",
"/  c #85806D",
"(  c #898575",
")  c #8C8777",
"_  c #8F8B7A",
"`  c #918D7C",
"'  c #94907E",
"]  c #BDA062",
"[  c #CB9D4D",
"{  c #C79F56",
"}  c #CAA648",
"|  c #D7A243",
" . c #DAA240",
".. c #D3A34E",
"X. c #DCB44F",
"o. c #C9A451",
"O. c #CDAA56",
"+. c #D6AC57",
"@. c #D9AA56",
"#. c #D7AA58",
"$. c #DEAF5B",
"%. c #E4B54E",
"&. c #E1A651",
"*. c #E3B35D",
"=. c #D0A761",
"-. c #D7AE63",
";. c #D6AC62",
":. c #D8AE63",
">. c #CFB16D",
",. c #D7B069",
"<. c #D8B36F",
"1. c #DDB163",
"2. c #D7B271",
"3. c #D9B472",
"4. c #DAB87C",
"5. c #DAB87A",
"6. c #E5B060",
"7. c #E6B866",
"8. c #EBBD6B",
"9. c #E9BA75",
"0. c #E4C442",
"q. c #F3CF54",
"w. c #F7D857",
"e. c #F6D75C",
"r. c #F8DB66",
"t. c #F5D461",
"y. c #F8DF75",
"u. c #F2DC7F",
"i. c #F9E17D",
"p. c #818281",
"a. c #969281",
"s. c #9B9683",
"d. c #9E9987",
"f. c #959495",
"g. c #959799",
"h. c #979898",
"j. c #999B9A",
"k. c #A39F8C",
"l. c #A6A18E",
"z. c #B3A388",
"x. c #A9A490",
"c. c #B3AE9A",
"v. c #B4B19F",
"b. c #BCB8A7",
"n. c #BEBAA8",
"m. c #BEBEBD",
"M. c #C6B68F",
"N. c #CAB48D",
"B. c #DCBD85",
"V. c #CDBB93",
"C. c #BEC1BF",
"Z. c #DEC18D",
"A. c #EFCA85",
"S. c #E1C79A",
"D. c #EFDE96",
"F. c #F7E19B",
"G. c #FAE99F",
"H. c #F9E491",
"J. c #C5C0AE",
"K. c #DAD2AF",
"L. c #C2C1BF",
"P. c #D2CAB3",
"I. c #D6D2BE",
"U. c #DAD5BF",
"Y. c #D9D3B9",
"T. c #E2CEA5",
"R. c #E3CDA4",
"E. c #E5CFAA",
"W. c #E5D1AB",
"Q. c #EDDDAA",
"!. c #F5DDA0",
"~. c #F4DCA9",
"^. c #E8D7B7",
"/. c #E7D7BC",
"(. c #E7D5B8",
"). c #E9D7BA",
"_. c #F5E3A7",
"`. c #FAE9A0",
"'. c #F7E4AC",
"]. c #F9E7A8",
"[. c #FBEDB4",
"{. c gray77",
"}. c #C8C7CB",
"|. c #CBCBCB",
" X c #DBD7C6",
".X c #DCD6C0",
"XX c #DFD9C2",
"oX c #DDD9C7",
"OX c #DFDBCB",
"+X c #DFDCCD",
"@X c #D2D2D2",
"#X c #DFDFDE",
"$X c #DCDCDA",
"%X c #E3DDC2",
"&X c #E2DDCB",
"*X c #E7E1C8",
"=X c #EAE3CB",
"-X c #FBEFC6",
";X c #F2EBCE",
":X c #F5ECCC",
">X c #FCF2CA",
",X c #E5E1D1",
"<X c #EAE6D5",
"1X c #E8E4D0",
"2X c #EDE8D1",
"3X c #EEEADA",
"4X c #F6EED1",
"5X c #F1EBD3",
"6X c #F4EDDF",
"7X c #F1ECDB",
"8X c #F7F0D2",
"9X c #F8F1D3",
"0X c #FAF2D3",
"qX c #FCF3D2",
"wX c #F9F2D5",
"eX c #FCF5D6",
"rX c #F5F1DE",
"tX c #F6F0DA",
"yX c #F9F2D9",
"uX c #FBF4D9",
"iX c #FAF4DF",
"pX c #FCF6DE",
"aX c #FCF5D8",
"sX c #E1E1E1",
"dX c #E9E9E9",
"fX c #EBEBEB",
"gX c #EDEDED",
"hX c #EEEEEE",
"jX c #F5EFE6",
"kX c #F6F2E2",
"lX c #FAF5E2",
"zX c #FBF7E4",
"xX c #FAF5E3",
"cX c #FDF8E6",
"vX c #FDF8E3",
"bX c #F7F3EE",
"nX c #F9F5ED",
"mX c #FDF9E9",
"MX c #FEFAEA",
"NX c #FDF9ED",
"BX c #F3F3F3",
"VX c #F1F1F1",
"CX c #F5F5F5",
"ZX c gray97",
"AX c #FCFBF7",
"SX c #FCF9F3",
"DX c #F9F9F9",
"FX c #FAFAFA",
"GX c #FAFAF9",
"HX c #FEFDF9",
"JX c gray99",
"KX c #FDFDFD",
"LX c #FEFEFE",
"PX c gray100",
"IX c #FFFFFE",
"UX c #FFFFFD",
/* pixels */
"PXPXPXPXPXPXPXPXPXPXPXPXPXPXPXPXPXPXPXPXPXPXPXPXPXPXPXPXPXPXPXPX",
"PXPXPXPXPXPXPXPXPXPXPXPXPXE.@.:.SXPXPXPXPXPXPXPXPXPXPXPXPXPXPXPX",
"PXPXPXPXPXPXPXPXPXPXPXPX).!.>XR | PXPXPXPXPXPXPXPXPXPXPXPXPXPXPX",
"PXPXPXPXPXPXPXPXPXPXPXPX:.PXI F M PXPXPXPXPXPXPXPXPXPXPXPXPXPXPX",
"PXPXPXPXPXPXPXPXPXPXPXPX3.t.F F n PXPXPXPXPXPXPXPXPXPXPXPXPXPXPX",
"PXPXPXPXPXPXPXPXPXPXPXPXSXa b v 4.PXPXPXPXPXPXPXPXPXPXPXPXPXPXPX",
"PXPXPXPXPXPXPXPXPXPXPXPXPXPXyXNXPXPXbX;.k ..(.PXPXPXPXPXPXPXPXPX",
"PXPXPXPXPXPXPXPXPXPXPXPXPXPXPXPXPXjX&.qXSXe.v B.PXPXPXPXPXPXPXPX",
"PXPXPXPXPXPXPX(.$.#.GXPXPXPXPXPXPX..PXr.F F F M nXPXPXPXPXPXPXPX",
"PXPXPXPXPXPXPX9.[.Y <.PXPXPXPXPXPX6.PXF F F F x W.PXPXPXPXPXPXPX",
"PXPXPXPXPXPXPXA.w.A -.PXPXPXPXPXPX8.GXF F F F L 5.PXPXPXPXPXPXPX",
"PXPXPXPXPXPXPX<.m h 6XPXPXPXPXPXPXk I F F F F F v a k a 2.SXPXPX",
"PXPXPXPXPXPXPXPXPXPXPXPXPXPXPXPXPX(.v H F F F F u.PXPXy.c p 7XPX",
"PXPXPXPXPXPXPXPXPXJXFXFXFXPXGXPXPXPXR.k M x F `.mXT F F F A s PX",
"PXPXPXPXPXmXcXxXtXtXtXkXkX+.*.k (.PXPXPXPX,.q.PXT F F F F F b R.",
"PXS.~.&.pXlXpXeX9X;XuX4X>.Q.A.K i FXPXGXPXW.F.G.F F F F F F L O.",
"PX1.H.K '.eXlX=Xl.a.d.c.W 0XK L g CXFXPXPXZ.].y.S F F F F F S | ",
"PXS.z  .qXvXmX+XO     / * } D J i gXVXFXFXE.x H F F F F F F P O.",
"PXmXiXeXvXmXPX}..         E 7.n T.7XgXCXFX-.P F F F F F F F b E.",
"PXkX0X2XoXC.{.j.& % $ $ $ * oX;X2X<XN.s %.V H F F F F F F P s PX",
"mXlX0Xl.. . X % #XVXgXbXVXf.( v.;XV.+.dXD.R S S S S F S x j jXPX",
"mXpX=X`       + fXPXPXPXPXg.  s.0Xu @Xl e Z S S z k h f 4.SXPXPX",
"mXpX%X_       # dXPXPXPXPXf.  ' ;Xo.}.9 e C S L 4.PXPXPXPXPXPXPX",
"mXiX*X_       @ dXPXPXPXPXf.  s.8Xo.J.9 e C S c W.PXPXPXPXPXPXPX",
"mXkX8Xd.      @ gXPXPXPXPXh., x.4X6 1 7 w C D n nXPXPXPXPXPXPXPX",
"JXtX4X.Xb.* - * p.= = < p.= n.U.*XP.: 8 w r z B.PXPXPXPXPXPXPXPX",
"JXkXtXuXzXmXPXC..         v.:X-X&X XL.~ u [ (.PXPXPXPXPXPXPXPXPX",
"JXZXkXyXuXzXmXC.O       / ! _.X.] m.@XsXhXDXPXPXPXPXPXPXPXPXPXPX",
"FXDXkX7XyXeXpX&Xa.( _ d.E 9X0.0 ; {.$XdXBXFXPXPXPXPXPXPXPXPXPXPX",
"PXJXZXkX7X7X0X0X%XY.%X9Xo.K.0 9 3 @XsXgXCXFXPXPXPXPXPXPXPXPXPXPX",
"PXFXDXBXfX3X<X1XXX.XI.I.M.t 2 1 5 sXfXBXFXPXPXPXPXPXPXPXPXPXPXPX",
"PXPXJXZXVXfX#X<X,X&XOXOX{.z.4 ^ #XfXVXFXFXPXPXPXPXPXPXPXPXPXPXPX"
};
