/* XPM */
static char *render_lux_mix[] = {
/* columns rows colors chars-per-pixel */
"32 32 256 2",
"   c black",
".  c #343434",
"X  c #8F7133",
"o  c #A6742C",
"O  c #A57C34",
"+  c #817D6D",
"@  c #817B68",
"#  c #807F7F",
"$  c #AF9015",
"%  c #B8941A",
"&  c #AE8224",
"*  c #AF8438",
"=  c #AB843D",
"-  c #B78F3C",
";  c #CAA717",
":  c #CCA917",
">  c #CFAC18",
",  c #CBA81A",
"<  c #C9A31C",
"1  c #D0AC18",
"2  c #D3AC1C",
"3  c #DDB619",
"4  c #E1BA1B",
"5  c #E8BE1D",
"6  c #C69923",
"7  c #C39129",
"8  c #C39337",
"9  c #CF9830",
"0  c #CF983A",
"q  c #D69A34",
"w  c #DB9F37",
"e  c #DC9F36",
"r  c #D79F3B",
"t  c #D39C3D",
"y  c #D99F38",
"u  c #DEA037",
"i  c #D8A130",
"p  c #DBA039",
"a  c #D9A13D",
"s  c #DFA23A",
"d  c #D9B933",
"f  c #D7B93D",
"g  c #E7AF2E",
"h  c #E4AC2D",
"j  c #E0AC2A",
"k  c #EFBF23",
"l  c #EEBD24",
"z  c #E8B02D",
"x  c #ECB828",
"c  c #E4A733",
"v  c #E5A832",
"b  c #E6AB30",
"n  c #E7AF34",
"m  c #E6AC30",
"M  c #E3AB3E",
"N  c #ECBF35",
"B  c #E7C01E",
"V  c #E9C11B",
"C  c #ECC41B",
"Z  c #F0C71C",
"A  c #F2C61F",
"S  c #F3C91C",
"D  c #F4CA1C",
"F  c #F4CA1D",
"G  c #F4C91D",
"H  c #EEC72A",
"J  c #EEC02A",
"K  c #E9C224",
"L  c #F0C121",
"P  c #F2C520",
"I  c #F3C924",
"U  c #F4CC23",
"Y  c #F5CE2F",
"T  c #F1C635",
"R  c #F5CF31",
"E  c #F1CC3F",
"W  c #A08548",
"Q  c #B69458",
"!  c #B89B5D",
"~  c #B49255",
"^  c #868271",
"/  c #8B8776",
"(  c #888473",
")  c #8D8977",
"_  c #8E8A79",
"`  c #9D9373",
"'  c #AF9969",
"]  c #C99C4C",
"[  c #C89F56",
"{  c #CBA34D",
"}  c #D7A243",
"|  c #DAA240",
" . c #D1A840",
".. c #D3A34E",
"X. c #C8A654",
"o. c #CFA853",
"O. c #D6AC57",
"+. c #D9AA56",
"@. c #D7AA58",
"#. c #DEAF5B",
"$. c #E2A94C",
"%. c #E2B44E",
"&. c #E2A751",
"*. c #E2B25D",
"=. c #D0A761",
"-. c #D7AE63",
";. c #D5AC62",
":. c #D8AE63",
">. c #DDB163",
",. c #D7B069",
"<. c #D8B36F",
"1. c #D7B271",
"2. c #D9B472",
"3. c #DAB87C",
"4. c #DAB87A",
"5. c #E5B060",
"6. c #EBBD6B",
"7. c #E9BA75",
"8. c #F3CF54",
"9. c #F7D857",
"0. c #F6D75C",
"q. c #E1C56A",
"w. c #F5D461",
"e. c #F8DB66",
"r. c #E2C076",
"t. c #E0C17A",
"y. c #F8DF75",
"u. c #F9E17D",
"i. c #808080",
"p. c #999482",
"a. c #9B9684",
"s. c #9D9886",
"d. c #B1A286",
"f. c #B0AB99",
"g. c #B6B09B",
"h. c #B9B49E",
"j. c #BFBAA4",
"k. c #BFBBAB",
"l. c gray75",
"z. c gray72",
"x. c #C6B38C",
"c. c #DCBD85",
"v. c #CBB990",
"b. c #C0BEBA",
"n. c #DEC18D",
"m. c #DAC991",
"M. c #D4C398",
"N. c #EFCA85",
"B. c #F2DC80",
"V. c #E1C79A",
"C. c #EDDC95",
"Z. c #F9E491",
"A. c #F7E19B",
"S. c #FAE99F",
"D. c #CEC6AF",
"F. c #D7CEAA",
"G. c #D2CCB3",
"H. c #DED5B3",
"J. c #D7D2BD",
"K. c #DBD5BA",
"L. c #DAD3BC",
"P. c #E3CCA4",
"I. c #E3CDA4",
"U. c #E5CFAA",
"Y. c #E5D1AC",
"T. c #E5D0AA",
"R. c #F5DDA0",
"E. c #F4DCA9",
"W. c #E8D7B7",
"Q. c #EFDEB6",
"!. c #E7D6BA",
"~. c #E6D6BC",
"^. c #E9D7B9",
"/. c #FAE9A0",
"(. c #F7E4AB",
"). c #F9E7A8",
"_. c #ECE2BB",
"`. c #F4E5B0",
"'. c #FBEDB4",
"]. c #CBCBCB",
"[. c gray80",
"{. c gray77",
"}. c #D7D3C3",
"|. c #DCD7C0",
" X c #DED9C3",
".X c #DEDACA",
"XX c LightGray",
"oX c #DFDFDF",
"OX c #DDDDDD",
"+X c #DDDCD9",
"@X c #E2DCC1",
"#X c #E1DDCD",
"$X c #E4DEC8",
"%X c #EAE3C7",
"&X c #E4E0CF",
"*X c #EBE4CA",
"=X c #ECE5C9",
"-X c #ECE6CD",
";X c #F1E9CD",
":X c #FCF2CA",
">X c #E5E1D1",
",X c #E9E5D2",
"<X c #EAE6D6",
"1X c #EEEAD9",
"2X c #F6EFD0",
"3X c #F3EADB",
"4X c #F4EDDF",
"5X c #F6F0D6",
"6X c #FDF5D6",
"7X c #FAF2D2",
"8X c #FCF5D8",
"9X c #FDF6D9",
"0X c #FCF6DA",
"qX c #FBF6DF",
"wX c #FCF6DC",
"eX c #FAF3DC",
"rX c #E4E4E4",
"tX c #E9E9E9",
"yX c #EAEAEA",
"uX c #EDEDED",
"iX c #F5EFE6",
"pX c #F6F2E1",
"aX c #FBF5E1",
"sX c #FBF6E1",
"dX c #F9F5E3",
"fX c #FAF5E2",
"gX c #FCF7E1",
"hX c #FDF7E3",
"jX c #FBF6E5",
"kX c #FDF8E6",
"lX c #FDF8E5",
"zX c #F7F3EE",
"xX c #F9F5ED",
"cX c #FCF8E8",
"vX c #FDF9E8",
"bX c #FDF9E9",
"nX c #FCF9E9",
"mX c #FEFAEA",
"MX c #FDF9ED",
"NX c #F1F1F1",
"BX c #F2F2F2",
"VX c gray96",
"CX c #F7F7F7",
"ZX c #FCFBF7",
"AX c #FCF9F3",
"SX c #F8F8F8",
"DX c #F9F9F9",
"FX c #F9F9F8",
"GX c #FBFBFB",
"HX c #FEFDF9",
"JX c gray99",
"KX c #FDFDFD",
"LX c #FEFEFE",
"PX c gray100",
"IX c #FFFFFE",
"UX c #FFFFFD",
/* pixels */
"PXPXPXPXPXPXPXPXPXPXPXPXPXPXPXPXPXPXPXPXPXPXPXPXPXPXPXPXPXPXPXPX",
"PXPXPXPXPXPXPXPXPXPXPXPXPXU.+.-.ZXPXPXPXPXPXPXPXPXPXPXPXPXPXPXPX",
"PXPXPXPXPXPXPXPXPXPXPXPX^.R.:XE } PXPXPXPXPXPXPXPXPXPXPXPXPXPXPX",
"PXPXPXPXPXPXPXPXPXPXPXPX-.PXU D b PXPXPXPXPXPXPXPXPXPXPXPXPXPXPX",
"PXPXPXPXPXPXPXPXPXPXPXPX2.w.D D v PXPXPXPXPXPXPXPXPXPXPXPXPXPXPX",
"PXPXPXPXPXPXPXPXPXPXPXPXAXw x g 3.PXPXPXPXPXPXPXPXPXPXPXPXPXPXPX",
"PXPXPXPXPXPXPXPXPXPXPXPXPXPXeXMXPXPXzX;.a ..^.PXPXPXPXPXPXPXPXPX",
"PXPXPXPXPXPXPXPXPXPXPXPXPXPXPXPXPXiX&.7XAX0.z c.PXPXPXPXPXPXPXPX",
"PXPXPXPXPXPXPXW.#.@.ZXPXPXPXPXPXPX..PXe.D D F b xXPXPXPXPXPXPXPX",
"PXPXPXPXPXPXPX7.'.T <.PXPXPXPXPXPX5.PXF D F F k U.PXPXPXPXPXPXPX",
"PXPXPXPXPXPXPXN.9.A ;.PXPXPXPXPXPX6.HXF D D D L 4.PXPXPXPXPXPXPX",
"PXPXPXPXPXPXPX<.v u 4XPXPXPXPXPXPXa P D D D D F z y s w 1.AXPXPX",
"PXPXPXPXPXPXPXPXPXPXPXPXPXPXPXPXPX~.g D F F F F u.PXHXu.k e 3XPX",
"PXPXPXPXPXPXPXPXvXkXvXGXGXDXDXPXPXPXP.e h l D S.kXY D F S A t PX",
"PXPXPXPXPXvXkXkXaXaXaXaXdXO.*.| ~.PXPXPXPX,.8.PXY D F F S S x P.",
"PXV.E.$.eXgX0X6X0XwX0X6Xt.`.B.H q DXJXHXPXY.A.S.D D F F F S L @.",
"PX>.Z.J (.0XgXkXvXnXnXjXr.9XH B j BXZXDXGXV.).y.G G D D D D S r ",
"PXV.n M 6XkXvXPXPXPXPXPX_.q.K 4 9 tXBXSXGXU.5 G D G D D D D A =.",
"PXvXhX0XkXvXPXPXPXPXPXPX].' O i M.1XtXBXAX;.A D D D D D F F x I.",
"PXkX0XhXvXPXPXPXPXPXJX].( . ( j.*X>Xx.0 %.N S D D D D D D P t PX",
"vXgX0XkXPXPXPXPXPXPX].i..     s.2Xv.X.rXC.8.S S D D D F k e 4XPX",
"vXaXwXkXPXPXPXPXPX].i..       _ @X8 >Xf 4 C S D g a e r 3.ZXPXPX",
"vXwXwXvXPXPXPXPX].# .         ( K.{ #X> 4 V Z Z 3.PXPXPXPXPXPXPX",
"nXgXwXvXPXPXPX].i..           ) @X[ H.: 3 V Z 5 Y.PXPXPXPXPXPXPX",
"nXaX6XkXPXPX].i..             a.;X- 2 : 3 V C c xXPXPXPXPXPXPXPX",
"GXaX0XaXvX].i..             ^ h.=XD.o < 3 5 g c.PXPXPXPXPXPXPXPX",
"GXdXpX0X*Xb..             + ` _.L.}.l.~ 8 ] ~.PXPXPXPXPXPXPXPXPX",
"GXCXpX5X*Xf.+           @ X m.a ! z.].rXuXVXDXPXPXPXPXPXPXPXPXPX",
"PXSXdX1X*X%Xg.p./ ( / p.W *Xd ; 7 {.XXrXBXDXPXPXPXPXPXPXPXPXPXPX",
"PXGXVX4X,X$X;X;XK.G.K.;Xo.F., : & XXrXuXVXDXPXPXPXPXPXPXPXPXPXPX",
"JXJXDXBXtX<X#X X XL.}.J.x.6 $ % * OXtXBXDXPXPXPXPXPXPXPXPXPXPXPX",
"PXPXJXSXBXtXoX<X&X#X.X.Xl.d.= ~ +XtXBXAXDXPXPXPXPXPXPXPXPXPXPXPX"
};
