/* XPM */
static char *render_luxshader[] = {
/* columns rows colors chars-per-pixel */
"32 32 256 2",
"   c #1B1B1B",
".  c #252525",
"X  c #282828",
"o  c #2E2E2E",
"O  c #31312E",
"+  c #323232",
"@  c #343434",
"#  c #373737",
"$  c #3B3A36",
"%  c gray23",
"&  c #3C3C3C",
"*  c #3F3F3F",
"=  c #414141",
"-  c #434343",
";  c #454545",
":  c #494949",
">  c gray29",
",  c #4F4F4F",
"<  c gray30",
"1  c #505050",
"2  c #525252",
"3  c #555555",
"4  c #575757",
"5  c #585858",
"6  c #5A5A5A",
"7  c #5C5C5C",
"8  c #5F5F5F",
"9  c #5F5F5C",
"0  c #62615D",
"q  c #616161",
"w  c #636363",
"e  c #656565",
"r  c #98741C",
"t  c #8D6E2E",
"y  c #956D22",
"u  c #9B6C29",
"i  c #A47B22",
"p  c #A77E35",
"a  c #A27D3A",
"s  c #897F5E",
"d  c #A08512",
"f  c #A58814",
"g  c #A88816",
"h  c #AE8C19",
"j  c #BF9A1A",
"k  c #BF8D36",
"l  c #BE953F",
"z  c #C09F16",
"x  c #C3A216",
"c  c #C7A519",
"v  c #D5AF18",
"b  c #D5B018",
"n  c #DAB419",
"m  c #E3BC1A",
"M  c #E2BB1B",
"N  c #D19E29",
"B  c #CD9730",
"V  c #C99338",
"C  c #D29833",
"Z  c #DB9F37",
"A  c #DC9F36",
"S  c #D79F3B",
"D  c #D39C3D",
"F  c #D79F3E",
"G  c #D99F38",
"H  c #DEA037",
"J  c #D2A13A",
"K  c #DBA039",
"L  c #D9A13D",
"P  c #DFA23A",
"I  c #CDB03A",
"U  c #E7AF2E",
"Y  c #E2AA2E",
"T  c #EFBF23",
"R  c #EEBD24",
"E  c #E8BA23",
"W  c #E8B02D",
"Q  c #E1BC28",
"!  c #ECB828",
"~  c #E2A732",
"^  c #E4A733",
"/  c #E5A931",
"(  c #E6AC30",
")  c #E9BD34",
"_  c #EDC51B",
"`  c #E8C01C",
"'  c #F2C61E",
"]  c #F3C91C",
"[  c #F1C81C",
"{  c #F4CA1C",
"}  c #F4CA1D",
"|  c #F4C91D",
" . c #ECC221",
".. c #F0C121",
"X. c #F2C520",
"o. c #F3C924",
"O. c #F4CC23",
"+. c #F5CE2F",
"@. c #EDCB3E",
"#. c #F1C635",
"$. c #F5CF31",
"%. c #F2CC3C",
"&. c #AD8D52",
"*. c #BD9D50",
"=. c #B4985B",
"-. c #8D8979",
";. c #948D76",
":. c #A8997F",
">. c #C39F4F",
",. c #C5994B",
"<. c #D7A243",
"1. c #DAA240",
"2. c #D3A34E",
"3. c #DFA44F",
"4. c #DEB14C",
"5. c #CAA158",
"6. c #D9AA56",
"7. c #D7AA58",
"8. c #DEAF5B",
"9. c #D9AE5C",
"0. c #E9BC47",
"q. c #E2A751",
"w. c #E1B453",
"e. c #C3A869",
"r. c #D0A761",
"t. c #D6AD63",
"y. c #D5AB60",
"u. c #D8AE63",
"i. c #DDB163",
"p. c #D7B069",
"a. c #D8B36F",
"s. c #D7B271",
"d. c #D9B472",
"f. c #DAB87C",
"g. c #DAB87A",
"h. c #E5B060",
"j. c #EBBD6B",
"k. c #E9BA75",
"l. c #F3CF54",
"z. c #F7D857",
"x. c #F6D75C",
"c. c #F5D461",
"v. c #F8DB66",
"b. c #EAD479",
"n. c #F8DF75",
"m. c #F9E17D",
"M. c #9A9685",
"N. c #9F9B89",
"B. c #959282",
"V. c #A39E8C",
"C. c #A5A18F",
"Z. c #BDA984",
"A. c #A6A392",
"S. c #AAA694",
"D. c #AFAA96",
"F. c #ADA999",
"G. c #B2AE9B",
"H. c #B2AE9D",
"J. c #A5A5A5",
"K. c gray68",
"L. c #B6B1A0",
"P. c #BBB6A3",
"I. c #B4B1AE",
"U. c #B5B5B5",
"Y. c #B9B9B9",
"T. c #C2B28C",
"R. c #DCBD85",
"E. c #CFBC90",
"W. c #C1BDA9",
"Q. c #DDC08D",
"!. c #DFCC9B",
"~. c #EFCA85",
"^. c #E1C79A",
"/. c #E7D691",
"(. c #F7E19B",
"). c #F8E69C",
"_. c #FAE99F",
"`. c #CCC4AB",
"'. c #D6D0B8",
"]. c #D9D3BB",
"[. c #E3CBA2",
"{. c #E3CDA5",
"}. c #E4CFA9",
"|. c #EDDDA2",
" X c #E5D1AC",
".X c #E3D3AD",
"XX c #F5DEA0",
"oX c #F4DCA9",
"OX c #E8D7B7",
"+X c #E5D5B9",
"@X c #E6D6BC",
"#X c #E9D7B9",
"$X c #FAE9A0",
"%X c #F9E7A8",
"&X c #FBEDB4",
"*X c #C1C1C1",
"=X c #C6C6C6",
"-X c #CBCBCB",
";X c #CDCDCD",
":X c #DFDAC4",
">X c #D5D5D5",
",X c #D7D7D7",
"<X c #D6D4D2",
"1X c gainsboro",
"2X c #E5DFC5",
"3X c #E3DDC4",
"4X c #E1DDCB",
"5X c #E8E2C7",
"6X c #E7E2C9",
"7X c #EBE4CA",
"8X c #EFE8CF",
"9X c #FCF2CA",
"0X c #E9E5D6",
"qX c #EDE7D0",
"wX c #EFE9D3",
"eX c #EDE8D2",
"rX c #ECE8D6",
"tX c #EFEBD8",
"yX c #F1EAD0",
"uX c #F0E9D0",
"iX c #F2ECD0",
"pX c #F5EFD2",
"aX c #F3EADB",
"sX c #F4EDDF",
"dX c #F2EEDD",
"fX c #F9F2D3",
"gX c #FCF3D2",
"hX c #F6F1DC",
"jX c #FBF2DA",
"kX c #E3E3E3",
"lX c #E5E5E5",
"zX c #EDEDED",
"xX c #EEEEEE",
"cX c gray91",
"vX c #F5EFE6",
"bX c #F6F1E0",
"nX c #F7F3EE",
"mX c #F9F5ED",
"MX c #FEFAEC",
"NX c #F3F3F3",
"BX c #F1F1F1",
"VX c #F5F5F5",
"CX c #F6F6F6",
"ZX c #F6F6F5",
"AX c #FCFBF7",
"SX c #FCF9F3",
"DX c #F9F9F9",
"FX c #F8F8F8",
"GX c gray98",
"HX c #FBFBFB",
"JX c #FEFDF9",
"KX c gray99",
"LX c #FDFDFD",
"PX c #FFFFFD",
"IX c #FEFEFE",
"UX c gray100",
/* pixels */
"UXUXUXUXUXUXUXUXUXUXUXUXUXUXUXUXUXUXUXUXUXUXUXUXUXUXUXUXUXUXUXUX",
"UXUXUXUXUXUXUXUXUXUXUXUXUX}.6.t.AXUXUXUXUXUXUXUXUXUXUXUXUXUXUXUX",
"UXUXUXUXUXUXUXUXUXUXUXUX#XXX9X%.<.UXUXUXUXUXUXUXUXUXUXUXUXUXUXUX",
"UXUXUXUXUXUXUXUXUXUXUXUXu.UXO.{ ( UXUXUXUXUXUXUXUXUXUXUXUXUXUXUX",
"UXUXUXUXUXUXUXUXUXUXUXUXd.c.{ { ^ UXUXUXUXUXUXUXUXUXUXUXUXUXUXUX",
"UXUXUXUXUXUXUXUXUXUXUXUXSXK ! U f.UXUXUXUXUXUXUXUXUXUXUXUXUXUXUX",
"UXUXUXUXUXUXUXUXUXUXUXUXUXUXjXMXUXUXnXy.1.2.OXUXUXUXUXUXUXUXUXUX",
"UXUXUXUXUXUXUXUXUXUXUXUXUXUXUXUXUXvXq.gXSXx.U R.UXUXUXUXUXUXUXUX",
"UXUXUXUXUXUXUXOX8.7.AXUXUXUXUXUXUX2.UXv.{ { { ( mXUXUXUXUXUXUXUX",
"UXUXUXUXUXUXUXk.&X#.a.UXUXUXUXUXUXh.UX{ { { { R }.UXUXUXUXUXUXUX",
"UXUXUXUXUXUXUX~.z.' y.UXUXUXUXUXUXj.KX{ { { { ..g.UXUXUXUXUXUXUX",
"UXUXUXUXUXUXUXa.^ H sXUXUXUXUXUXUXL o.{ { { { { U K P Z s.SXUXUX",
"UXUXUXUXUXUXUXUXUXUXUXUXUXKXUXUXUX+XU { { { { { m.UXKXn.T Z aXUX",
"UXUXUXUXUXUXUXUXDXAXDXCXCXDXDXKXUXUX[.A U R { $XMX$.{ { { ' D UX",
"UXUXUXUXKXKXhXwXyXpXyXwXtX5.8.F +XKXUXUXKXp.l.UX+.{ { { { { ! [.",
"UX^.oX3.hXyX3XP.S.9 0 H.e.|.b.Q C CXDXHXUX X(._.{ { { { { { X.r.",
"UXu.).E %XL.8 8 6 6 3 1 ; C. .n N xXCXDXKXQ.%Xn.{ { { { { { { <.",
"UX!.Y ~ A.w q w q 6 6 2 < ; @ ` B kXzXCXDX}.R { { { { { { { X.r.",
"UXAXyXH.q q e e q q 6 4 1 : % t !.0XkXxXCXy. .{ { { { { { { ! {.",
"UXvX6X9 e e e e q q 7 4 2 : - o '.:XZ.V 4.) { { { { { { { X.D UX",
"DXwXW.q w e e e w q 6 4 1 > - + V.E.*.1X/.@.{ { { { { {  .Z vXUX",
"AXyXF.q w w e e w q 6 4 1 : - + % J *XI n ` ' { U K Z S f.AXUXUX",
"HXyXA.8 q w w q q 9 6 3 < : & + O w.U.x n m _ ..f.UXUXUXUXUXUXUX",
"DXqXF.9 8 q q q 9 6 5 2 < ; & o -.9.H.x b m _ R  XUXUXUXUXUXUXUX",
"DXqXW.4 6 9 7 6 6 5 3 , : = @ . V.l f j v M _ ~ mXUXUXUXUXUXUXUX",
"FXsX7X, 3 4 5 4 3 2 , : - & o   '.`.u j v M Y R.UXUXUXUXUXUXUXUX",
"DXBX8XH., 1 2 2 1 < : - & @ . ;.5XJ.U.&.k ,.+XUXUXUXUXUXUXUXUXUX",
"KXVXtXfXA.: > > : ; = % @ X -.) =.K.*X>XlXNXDXUXUXUXUXUXUXUXUXUX",
"UXFXxXrXfXH.& = * & # + . V.$.c y Y.-X1XxXCXDXUXUXUXUXUXUXUXUXUX",
"UXDXBXcX0X6X5XL.N.B.M.D.,.].c d i =X,XlXBXFXUXUXUXUXUXUXUXUXUXUX",
"UXDXCXBXlX>X4X:X5X6X5X].T.r f h p <XlXxXCXUXUXUXUXUXUXUXUXUXUXUX",
"UXUXHXCXxXkX1X;X*XY.U.I.U.:.a &.<XlXzXZXDXKXUXUXUXUXUXUXUXUXUXUX"
};
