/* XPM */
static char *render_lux_fbm[] = {
/* columns rows colors chars-per-pixel */
"32 32 256 2",
"   c black",
".  c #060606",
"X  c gray6",
"o  c #151515",
"O  c #191919",
"+  c #222222",
"@  c #2A2A2A",
"#  c #363636",
"$  c gray19",
"%  c gray23",
"&  c #454545",
"*  c #414141",
"=  c #494949",
"-  c #4C4C4C",
";  c #505050",
":  c #5E5E5E",
">  c #5A5A5A",
",  c #666666",
"<  c DimGray",
"1  c gray43",
"2  c gray46",
"3  c #797979",
"4  c gray49",
"5  c #B37D30",
"6  c #BC9B17",
"7  c #BA8B27",
"8  c #B98C3B",
"9  c #C39E1B",
"0  c #D3AD1C",
"q  c #D7B219",
"w  c #DAB419",
"e  c #E6BE1A",
"r  c #CB9A28",
"t  c #CC9739",
"y  c #CB9B3D",
"u  c #D49E34",
"i  c #DA9E36",
"p  c #DC9F36",
"a  c #D69E3B",
"s  c #D39C3D",
"d  c #D99F38",
"f  c #DDA82B",
"g  c #DCA036",
"h  c #DBA039",
"j  c #DCA23C",
"k  c #D7B839",
"l  c #E7AE2E",
"z  c #E3AB2E",
"x  c #E6BE21",
"c  c #EDBD24",
"v  c #EFBF23",
"b  c #E8B02D",
"n  c #ECB828",
"m  c #E4A733",
"M  c #E5A932",
"N  c #E6AC30",
"B  c #EEC51B",
"V  c #EBC21C",
"C  c #F2C61E",
"Z  c #F3C91C",
"A  c #F4CA1C",
"S  c #F4CA1D",
"D  c #F4C91D",
"F  c #EFC826",
"G  c #ECC528",
"H  c #F0C121",
"J  c #F2C520",
"K  c #F3CB24",
"L  c #F5CE2F",
"P  c #EDC035",
"I  c #E1C23F",
"U  c #F1C635",
"Y  c #F5CF31",
"T  c #F2CA3F",
"R  c #F3D03F",
"E  c #B58B41",
"W  c #BD9542",
"Q  c #BD9959",
"!  c #878372",
"~  c #898575",
"^  c #888473",
"/  c #928E7D",
"(  c #BFA162",
")  c #CD9F4E",
"_  c #C09C5C",
"`  c #CFA846",
"'  c #D7A243",
"]  c #DCA340",
"[  c #D3A34E",
"{  c #CFA65D",
"}  c #C5A155",
"|  c #D7AD56",
" . c #D3AA55",
".. c #D7AA58",
"X. c #DEAF5B",
"o. c #D9AA56",
"O. c #DCB150",
"+. c #D4B059",
"@. c #E2A84B",
"#. c #E6B74F",
"$. c #E2A751",
"%. c #E5B55E",
"&. c #D0A761",
"*. c #D7AE63",
"=. c #D6AC62",
"-. c #D8AE63",
";. c #DCB364",
":. c #D7B069",
">. c #D8B36F",
",. c #D7B271",
"<. c #D9B472",
"1. c #D9BA7B",
"2. c #DAB87C",
"3. c #DABC7A",
"4. c #E5B060",
"5. c #EBBD6B",
"6. c #E9BA75",
"7. c #EFC643",
"8. c #F3CF54",
"9. c #F7D857",
"0. c #F6D75C",
"q. c #F8DB66",
"w. c #F5D461",
"e. c #F8DF75",
"r. c #F3DC7F",
"t. c #F9E17D",
"y. c #818181",
"u. c gray51",
"i. c #8B8B8B",
"p. c #959180",
"a. c #9C9887",
"s. c #A19D8A",
"d. c #A19D8C",
"f. c #A5A18F",
"g. c #BCAC8F",
"h. c #A7A290",
"j. c #AAA592",
"k. c #B5B19F",
"l. c #BEB9A3",
"z. c #BEBAAA",
"x. c #DCBD85",
"c. c #CEBA93",
"v. c #C6BFA7",
"b. c #C0BCAC",
"n. c #DEC18D",
"m. c #D3C19A",
"M. c #EFCA85",
"N. c #E1C799",
"B. c #E1C89B",
"V. c #E5CD95",
"C. c #F5E19A",
"Z. c #FAE99F",
"A. c #F9E491",
"S. c #C5C0AC",
"D. c #DBCAA2",
"F. c #C6C2B1",
"G. c #CBC7B6",
"H. c #CDC8B3",
"J. c #CFCBBA",
"K. c #D2CDB5",
"L. c #D6CFB9",
"P. c #DCD6BE",
"I. c #D9D3BB",
"U. c #DAD1B1",
"Y. c #E3CCA4",
"T. c #E5CFA9",
"R. c #EDDBA0",
"E. c #E5D1AB",
"W. c #EBDCAE",
"Q. c #F5DDA0",
"!. c #F2DDA9",
"~. c #E8D7B7",
"^. c #E7D6BA",
"/. c #E9D7B9",
"(. c #E7DBBC",
"). c #E8D8BC",
"_. c #FAE9A0",
"`. c #F9E7A8",
"'. c #EAE0BC",
"]. c #F7E8B2",
"[. c gray78",
"{. c gray80",
"}. c #CCCBC9",
"|. c #D3CFC0",
" X c #D7D3C2",
".X c #DAD5C4",
"XX c #DBD6C2",
"oX c #DED9C6",
"OX c #DDD8C2",
"+X c #DEDBCB",
"@X c gray82",
"#X c #DCDCDC",
"$X c #E1DCC5",
"%X c #E1DCC9",
"&X c #E6E1CD",
"*X c #E7E1CA",
"=X c #E8E2CA",
"-X c #EBE4CA",
";X c #EDE7CD",
":X c #EBE5CE",
">X c #EEE8CE",
",X c #F1EACE",
"<X c #F6EDCC",
"1X c #FCF2CA",
"2X c #E7E3D3",
"3X c #EAE6D6",
"4X c #EBE6D3",
"5X c #EDE8D6",
"6X c #EDE8D3",
"7X c #EDE9D8",
"8X c #F2ECD2",
"9X c #F5EED2",
"0X c #F5EFD6",
"qX c #F1EBD3",
"wX c #F2EEDD",
"eX c #F4EEDE",
"rX c #F3EADB",
"tX c #F7F0D5",
"yX c #F6F0D3",
"uX c #FAF2D5",
"iX c #FDF4D5",
"pX c #F6F0DA",
"aX c #F5F1DE",
"sX c #FAF3DA",
"dX c #FBF4DD",
"fX c #E7E7E7",
"gX c #E3E3E2",
"hX c #EFEFEF",
"jX c #E9E9E9",
"kX c #F5EFE6",
"lX c #F6F2E1",
"zX c #F8F4E2",
"xX c #F9F5E4",
"cX c #FBF7E7",
"vX c #F8F3E2",
"bX c #F7F3EE",
"nX c #F9F5ED",
"mX c #FDF9E9",
"MX c #FEFAEA",
"NX c #FDF9ED",
"BX c #F1F1F1",
"VX c #F7F7F7",
"CX c #F5F5F5",
"ZX c #FCFBF7",
"AX c #FCF9F3",
"SX c #FBFBFB",
"DX c gray98",
"FX c #F8F8F8",
"GX c #FEFDF9",
"HX c gray99",
"JX c #FDFDFD",
"KX c #FEFEFE",
"LX c gray100",
"PX c #FFFFFE",
"IX c #FFFFFD",
"UX c #FCFBFA",
/* pixels */
"LXLXLXLXLXLXLXLXLXLXLXLXLXLXLXLXLXLXLXLXLXLXLXLXLXLXLXLXLXLXLXLX",
"LXLXLXLXLXLXLXLXLXLXLXLXLXT.o.*.AXLXLXLXLXLXLXLXLXLXLXLXLXLXLXLX",
"LXLXLXLXLXLXLXLXLXLXLXLX/.Q.1XT ' LXLXLXLXLXLXLXLXLXLXLXLXLXLXLX",
"LXLXLXLXLXLXLXLXLXLXLXLX*.LXK A N LXLXLXLXLXLXLXLXLXLXLXLXLXLXLX",
"LXLXLXLXLXLXLXLXLXLXLXLX<.w.A D m LXLXLXLXLXLXLXLXLXLXLXLXLXLXLX",
"LXLXLXLXLXLXLXLXLXLXLXLXAXp n l 2.LXLXLXLXLXLXLXLXLXLXLXLXLXLXLX",
"LXLXLXLXLXLXLXLXLXLXLXLXLXLXsXNXLXLXbX..] [ ~.LXLXLXLXLXLXLXLXLX",
"LXLXLXLXLXLXLXLXLXLXLXLXLXLXLXLXLXkX$.iXAX0.l x.LXLXLXLXLXLXLXLX",
"LXLXLXLXLXLXLX~.X...GXLXLXLXLXLXLX[ LXq.A A D M nXLXLXLXLXLXLXLX",
"LXLXLXLXLXLXLX6.].U ,.LXLXLXLXLXLX%.LXD A A D c T.LXLXLXLXLXLXLX",
"LXLXLXLXLXLXLXM.9.C *.LXLXLXLXLXLX5.GXA A A A J 3.LXLXLXLXLXLXLX",
"LXLXLXLXLXLXLX>.M p eXLXLXLXLXLXLXh K A A A A D l d j i ,.AXLXLX",
"LXLXLXLXLXLXLXLXLXLXLXLXLXLXLXLXLX^.l D D D A D t.LXGXt.v p rXLX",
"LXLXLXLXLXLXLXLXmXmXHXLXHXLXHXLXLXLXY.j z c A Z.mXL A A A C s LX",
"LXLXLXLXLXmXcXxXvXvXzXzXxX .%.] ^.LXLXLXLX:.8.LXL A A A D D n Y.",
"LXN.!.@.dXlXpX0X0XtXtXpX3.].r.G i SXGXLXLXE.C.Z.A A A A A D J { ",
"LX;.A.G !.yXiX8X:X=X6XtXO.pXG V f FXSXLXLXx.`.e.A A A A A A A ' ",
"LXn.f h <X8XoXG.G.G.J.7XV.7.G V u BXCXSXLXE.c A A A A A A A J &.",
"LXmXaX8X6XXXJ.b.2 1 2 .X7X3.j g D.eXBXFXGX=.H A A A A A A A n T.",
"LXxX8XuX=X Xi.< - # % : y.S.L.uX&X5Xc.a #.P Z A A A A A A B s LX",
"LXlX8X;XoX|.y.< = @ @ o . ^ h.-X=Xm.+.hXC.R A A A A A D c d eXLX",
"mXaXtX$XF.y.y.< > ; % O     p.I.;Xy 5XI V B A D N h g a 2.UXLXLX",
"mXaXuXOXz.2 y.1 3 4 , # .   / K.>X .3Xw V B Z V 2.LXLXLXLXLXLXLX",
"mXaXtXI.k., 2 3 i.i.2 = X   a.P.;X{ (.w e V Z v E.LXLXLXLXLXLXLX",
"SXaXqXP.f./ & < ~ y.< * o ~ k.;X$X) 9 q e B B m nXLXLXLXLXLXLXLX",
"SXlX:X,Xj.^ O * > > & @ $ j.J.iX$XL.5 0 e V l x.LXLXLXLXLXLXLXLX",
"LXxX5X,XI.s.^ ~ + + X ^ d.S.W.'..X+X}.Q t ) ^.LXLXLXLXLXLXLXLXLX",
"SXxXlX6XyXP.j./ ~ ~ / f.S.+.R.` ( [.#XjXBXSXLXLXLXLXLXLXLXLXLXLX",
"LXSXxXwX6X,X,XK.l.l.H.P.;.>Xk 0 r @XgXhXCXLXLXLXLXLXLXLXLXLXLXLX",
"LXHXFXlXwX4X*X-X>XyX,X-X} U.0 0 7 #XfXBXSXSXLXLXLXLXLXLXLXLXLXLX",
"LXLXSXCXhXwX4X*X%XoXoXoXc.r 6 9 8 fXhXVXSXLXLXLXLXLXLXLXLXLXLXLX",
"LXLXLXSXCXhXfX#X3X2X{.}.{.g.E Q fXhXVXSXLXLXLXLXLXLXLXLXLXLXLXLX"
};
