/* XPM */
static char *render_lux_windy[] = {
/* columns rows colors chars-per-pixel */
"32 32 256 2",
"   c #4E4E4E",
".  c #555555",
"X  c #626262",
"o  c #6E6E6E",
"O  c #747474",
"+  c #797979",
"@  c gray49",
"#  c #AB7F23",
"$  c #A4732C",
"%  c #AB8D15",
"&  c #B39118",
"*  c #AC8237",
"=  c #A7813C",
"-  c #CAA717",
";  c #CBA817",
":  c #C8A11C",
">  c #CFAB18",
",  c #D1AE1F",
"<  c #DBB51A",
"1  c #DCB619",
"2  c #DFB81A",
"3  c #E4BC1C",
"4  c #C69A25",
"5  c #C29029",
"6  c #C49137",
"7  c #CF9839",
"8  c #D49B34",
"9  c #DC9F36",
"0  c #DB9F37",
"q  c #D39C3D",
"w  c #D79F3B",
"e  c #D99F38",
"r  c #D1AF21",
"t  c #D7A32A",
"y  c #DEA037",
"u  c #DCA435",
"i  c #DBA039",
"p  c #D9A13D",
"a  c #DEA43A",
"s  c #D6B83C",
"d  c #E6AE2E",
"f  c #EEBD24",
"g  c #EDBE25",
"h  c #E8B02D",
"j  c #ECB828",
"k  c #E4A733",
"l  c #E5A832",
"z  c #E6AB30",
"x  c #E4AC30",
"c  c #EBBF35",
"v  c #E9C11B",
"b  c #ECC31B",
"n  c #F0C71C",
"m  c #F2C61F",
"M  c #F3C91C",
"N  c #F1C81C",
"B  c #F4CA1C",
"V  c #F4CA1D",
"C  c #F4C91D",
"Z  c #EAC323",
"A  c #E7C129",
"S  c #EBC62C",
"D  c #F0C121",
"F  c #F2C520",
"G  c #F3CB24",
"H  c #F5CE2F",
"J  c #F1C635",
"K  c #F5CF31",
"L  c #F1CC3F",
"P  c #BF9745",
"I  c #B18F54",
"U  c #B59357",
"Y  c #BC9F61",
"T  c #CE9F41",
"R  c #C99C4C",
"E  c #D7A243",
"W  c #DAA240",
"Q  c #D3A34E",
"!  c #C7A554",
"~  c #D6AD57",
"^  c #D9AA56",
"/  c #D4AA5C",
"(  c #DEAF5B",
")  c #DDB458",
"_  c #E2A84B",
"`  c #E3B74E",
"'  c #E2A751",
"]  c #E1B25C",
"[  c #CBAC68",
"{  c #D0A761",
"}  c #D7AE63",
"|  c #D5AC62",
" . c #D8AE63",
".. c #D3AE6B",
"X. c #D7B069",
"o. c #D8B36F",
"O. c #DDB163",
"+. c #D7B271",
"@. c #D9B472",
"#. c #DDBE76",
"$. c #DAB87C",
"%. c #DAB87A",
"&. c #E5B060",
"*. c #EBBD6B",
"=. c #E9BA75",
"-. c #ECCA40",
";. c #F3CF54",
":. c #F7D857",
">. c #F6D75C",
",. c #DAC06C",
"<. c #F5D461",
"1. c #F8DB66",
"2. c #F8DF75",
"3. c #F0DA7E",
"4. c #F9E17D",
"5. c #838383",
"6. c #868686",
"7. c #898989",
"8. c #8D8D8D",
"9. c #919191",
"0. c #979797",
"q. c gray58",
"w. c #989898",
"e. c #9A9A9A",
"r. c #9F9F9F",
"t. c #9C9C9C",
"y. c #AD9E83",
"u. c #B1AD9C",
"i. c #A2A2A2",
"p. c gray65",
"a. c gray67",
"s. c #A9A9A9",
"d. c #AEAEAE",
"f. c #B7B3A2",
"g. c #BEB9A9",
"h. c #B1B1B1",
"j. c #B6B6B6",
"k. c #B4B4B4",
"l. c #B9B9B9",
"z. c gray73",
"x. c #BEBCBB",
"c. c #C6B08A",
"v. c #DCBD85",
"b. c #D7BF8A",
"n. c #CCBC94",
"m. c #C3BFAE",
"M. c #DEC18D",
"N. c #D4C299",
"B. c #EFCA85",
"V. c #E1C68D",
"C. c #E1C79A",
"Z. c #EDDC95",
"A. c #F8E491",
"S. c #F7E19B",
"D. c #FAE99F",
"F. c #DDCCA1",
"G. c #C6C2B1",
"H. c #C8C4B3",
"J. c #CFCAB7",
"K. c #D3CFBE",
"L. c #D3CBB3",
"P. c #DFD8BB",
"I. c #E3CCA4",
"U. c #E5CFAA",
"Y. c #E5D1AB",
"T. c #EBDCAA",
"R. c #F3DDA1",
"E. c #F4DCA9",
"W. c #E8D7B7",
"Q. c #E6D6BA",
"!. c #E7D6BC",
"~. c #E9D7B9",
"^. c #E8DFB9",
"/. c #FAE9A0",
"(. c #F1E1AD",
"). c #F9E7A8",
"_. c #FBEDB4",
"`. c #C1C1C1",
"'. c #C5C5C5",
"]. c #CBCBCB",
"[. c #C8C8C8",
"{. c #CECECE",
"}. c #D6D2C2",
"|. c #DAD7C6",
" X c #DCD7C3",
".X c #DFDAC3",
"XX c #DEDAC9",
"oX c #DFDCCB",
"OX c #D3D3D3",
"+X c gray83",
"@X c #DAD9D6",
"#X c #DADADA",
"$X c #DDDDDD",
"%X c #E4DFC8",
"&X c #E1DDCD",
"*X c #E3DECB",
"=X c #E6E1CB",
"-X c #E7E2CD",
";X c #EBE5CB",
":X c #EAE5CD",
">X c #EDE7CE",
",X c #E8E3CA",
"<X c #EEE8CE",
"1X c #ECE3C6",
"2X c #F1E7C4",
"3X c #FCF2CA",
"4X c #E9E4D2",
"5X c #EBE7D6",
"6X c #EFE9D1",
"7X c #EEE9D7",
"8X c #EDE9D9",
"9X c #F3EDD3",
"0X c #F5EED2",
"qX c #F5EFD7",
"wX c #F1EBD2",
"eX c #F3EFDE",
"rX c #F4EDDF",
"tX c #F3EDDA",
"yX c #F6F0D6",
"uX c #F9F2D5",
"iX c #FAF3D6",
"pX c #FBF3D4",
"aX c #F5F0D9",
"sX c #F6F1DD",
"dX c #FAF2DA",
"fX c #E1E1E1",
"gX c #E5E5E5",
"hX c #E7E7E7",
"jX c #E9E9E9",
"kX c gray92",
"lX c #EEEEEE",
"zX c #F5EFE6",
"xX c #F6F3E2",
"cX c #FAF6E6",
"vX c #F9F4E2",
"bX c #F7F3EE",
"nX c #FAF5EB",
"mX c #FDF9E9",
"MX c #FDF9ED",
"NX c #F3F3F3",
"BX c gray94",
"VX c #F7F7F7",
"CX c gray96",
"ZX c #FAF9F6",
"AX c #FCFBF7",
"SX c #FDFAF3",
"DX c #F9F9F9",
"FX c #FBFBFB",
"GX c gray98",
"HX c #FEFDF9",
"JX c gray99",
"KX c #FDFDFD",
"LX c #FEFEFE",
"PX c gray100",
"IX c #FFFFFE",
"UX c #FFFFFD",
/* pixels */
"PXPXPXPXPXPXPXPXPXPXPXPXPXPXPXPXPXPXPXPXPXPXPXPXPXPXPXPXPXPXPXPX",
"PXPXPXPXPXPXPXPXPXPXPXPXPXU.^  .AXPXPXPXPXPXPXPXPXPXPXPXPXPXPXPX",
"PXPXPXPXPXPXPXPXPXPXPXPXW.R.3XL E PXPXPXPXPXPXPXPXPXPXPXPXPXPXPX",
"PXPXPXPXPXPXPXPXPXPXPXPX .PXG B z PXPXPXPXPXPXPXPXPXPXPXPXPXPXPX",
"PXPXPXPXPXPXPXPXPXPXPXPX@.<.B B l PXPXPXPXPXPXPXPXPXPXPXPXPXPXPX",
"PXPXPXPXPXPXPXPXPXPXPXPXSXi j d $.PXPXPXPXPXPXPXPXPXPXPXPXPXPXPX",
"PXPXPXPXPXPXPXPXPXPXPXPXPXPXdXMXPXPXbX/ W Q W.PXPXPXPXPXPXPXPXPX",
"PXPXPXPXPXPXPXPXPXPXPXPXPXPXPXPXPXzX' pXSX>.d v.PXPXPXPXPXPXPXPX",
"PXPXPXPXPXPXPXW.( ~ AXPXPXPXPXPXPXQ PX1.B B B z nXPXPXPXPXPXPXPX",
"PXPXPXPXPXPXPX=._.J o.PXPXPXPXPXPX] PXC B B B f U.PXPXPXPXPXPXPX",
"PXPXPXPXPXPXPXB.:.m | PXPXPXPXPXPX*.HXC B B B D %.PXPXPXPXPXPXPX",
"PXPXPXPXPXPXPXo.l 9 rXPXPXPXPXPXPXp G B B B B C h i a e +.ZXPXPX",
"PXPXPXPXPXPXPXPXPXPXPXPXPXJXPXPXPXQ.d C C C C C 4.PXHX2.f 9 tXPX",
"PXPXPXPXPXPXPXPXFXGXFXFXFXFXJXKXPXPXI.y d f B D.MXK B B B m q PX",
"PXPXPXPXPXcXvXsXqXaXsXsXxX~ ] W Q.HXPXPXPXX.;.PXH B B B B B j I.",
"PXC.E._ dXqXuX9X:X:XwXuX#.(.3.g 8 GXGXPXPXY.S.D.B B B B B B D / ",
"PX&.A.g R.>X XH.g.G.H.K.[ uXS Z t NXDXKXPXb.).2.C C B B B B C W ",
"PXN.u u P.f.8.6.X o w.r.e.,.S Z 8 jXNXVXJXU.f C B B B B B B F { ",
"PXcXyX;Xu.. o 7.O o p.h.q.k...a F.8XjXNXZX| m B B B B B C C j I.",
"PXvXiXJ..   O 9.@ 5.a.d.i.w.k.-X9X4Xc.7 ` c N B B B B B B F q PX",
"PXsX<XG.+ X o 5.7.0.i.w.i.r.r.|.uXN.! gXZ.L B B B N B B D 9 rXPX",
"cXyX%XG.@ + o 7.t.9.9.8.0.a.w.&XqXT ].s 3 b N B h p 9 w $.FXPXPX",
"MX9X.X9.q.5.+ j.h.8.q.8.w.e.t.|.:X~ '.> 2 v N Z $.PXPXPXPXPXPXPX",
"cXqX-X}.h.w.p.`.h.r.r.w.s.9.0.}.:X/ g.> < v n f Y.PXPXPXPXPXPXPX",
"GXyXwXoXa.k.].'.j.l.k.x.l.l.j.oX0XP & - < v b k nXPXPXPXPXPXPXPX",
"GXsXiX*Xa.`.{.x.l.k.'.+X#X+X].:XuXL.$ : < 3 d v.PXPXPXPXPXPXPXPX",
"GXxXaX<X}.[.+X'.[.[.].[.jXfX1X2X%X}.x.U 6 R Q.PXPXPXPXPXPXPXPXPX",
"JXxXeXuX4X4XfXOX`.`.OX].fXV.T.` Y k.].$XkXVXGXPXPXPXPXPXPXPXPXPX",
"KXVXxXtXuXwX5X&Xt.d.&X*Xb.qX-.r 5 `.OXgXBXGXPXPXPXPXPXPXPXPXPXPX",
"KXGXNXeX7X9XpX:X.X X-X:X) !.r > % {.$XjXNXGXPXPXPXPXPXPXPXPXPXPX",
"KXKXDXBXgX7X4X:X:X;X-X*Xn.4 % & $ #XhXNXGXPXPXPXPXPXPXPXPXPXPXPX",
"PXKXGXVXBXgX#X{.&XoX|.l.z.y.= U $XhXBXVXGXPXPXPXPXPXPXPXPXPXPXPX"
};
