/* XPM */
static char *render_blender_musgrave[] = {
/* columns rows colors chars-per-pixel */
"32 32 256 2",
"   c #003C7B",
".  c #00417F",
"X  c #99712B",
"o  c #967435",
"O  c #EA6500",
"+  c #EB6E0D",
"@  c #EB6C09",
"#  c #EB6F10",
"$  c #EB7112",
"%  c #EC7316",
"&  c #EC7417",
"*  c #EB7215",
"=  c #EC751A",
"-  c #EC771D",
";  c #EC781F",
":  c #ED7921",
">  c #ED7B24",
",  c #ED7C26",
"<  c #ED7E2A",
"1  c #917544",
"2  c #BA9A16",
"3  c #A7813F",
"4  c #BB913C",
"5  c #C9A717",
"6  c #C5A118",
"7  c #CDAA18",
"8  c #C5A317",
"9  c #D1AD18",
"0  c #D6B119",
"q  c #DBB519",
"w  c #DFB81A",
"e  c #E4BD1B",
"r  c #CD9B29",
"t  c #CC9332",
"y  c #DC9F36",
"u  c #DB9E36",
"i  c #D39C3D",
"p  c #D49D3B",
"a  c #D99F38",
"s  c #EE802C",
"d  c #EF8B3D",
"f  c #EE8433",
"g  c #F08B3D",
"h  c #F08431",
"j  c #E39F3E",
"k  c #E89529",
"l  c #DEA82B",
"z  c #DCA034",
"x  c #DBA039",
"c  c #DBA33C",
"v  c #D0B33B",
"b  c #E7AF2E",
"n  c #F1A626",
"m  c #E6B723",
"M  c #EEBD24",
"N  c #EDBF22",
"B  c #E8B02D",
"V  c #ECB828",
"C  c #E6BD2B",
"Z  c #E5AA31",
"A  c #E6AC30",
"S  c #E4A733",
"D  c #E8B63D",
"F  c #E9B937",
"G  c #F0B735",
"H  c #ECC31B",
"J  c #F2C61E",
"K  c #F3C91C",
"L  c #F4CA1C",
"P  c #F4CA1D",
"I  c #F4C91D",
"U  c #EDC529",
"Y  c #E8C328",
"T  c #F0C121",
"R  c #F1C622",
"E  c #F3CA23",
"W  c #F5CE2F",
"Q  c #EECC3E",
"!  c #F5CF31",
"~  c #F2C83A",
"^  c #AE9E7E",
"/  c #EF8C42",
"(  c #F18D41",
")  c #F09046",
"_  c #F1944D",
"`  c #F19A58",
"'  c #F39D5B",
"]  c #F39953",
"[  c #D7A243",
"{  c #DCA340",
"}  c #D3A34E",
"|  c #DDB04F",
" . c #D5AA5A",
".. c #DEAF5B",
"X. c #D9AA56",
"o. c #C9A755",
"O. c #E3B54E",
"+. c #E2A651",
"@. c #E7AE57",
"#. c #F8A05D",
"$. c #E6B65E",
"%. c #D0A761",
"&. c #D7AE63",
"*. c #D4AC61",
"=. c #D8AE63",
"-. c #D7B069",
";. c #D8B36F",
":. c #DDB263",
">. c #D7B271",
",. c #D9B472",
"<. c #D9B77B",
"1. c #DAB87C",
"2. c #F3A467",
"3. c #E5B060",
"4. c #EBBD6B",
"5. c #F7AE78",
"6. c #F5B27B",
"7. c #F5B97F",
"8. c #E9BA75",
"9. c #F0C756",
"0. c #F3CF54",
"q. c #F7D857",
"w. c #F6D75C",
"e. c #F7D864",
"r. c #F8DF75",
"t. c #F9E17D",
"y. c #0D4A84",
"u. c #0B4683",
"i. c #114E88",
"p. c #18528C",
"a. c #3D6F9F",
"s. c #678EB6",
"d. c #688EB8",
"f. c #A5A5A5",
"g. c #AEADAB",
"h. c #B3B3B3",
"j. c gray73",
"k. c #CBB58D",
"l. c #D2B480",
"z. c #DCBC83",
"x. c #F7B481",
"c. c #F5B888",
"v. c #F5BC89",
"b. c #CCBEA6",
"n. c #DEC18D",
"m. c #DECA9E",
"M. c #EFCA85",
"N. c #F6C18C",
"B. c #FDC08F",
"V. c #F6C285",
"C. c #F0DC87",
"Z. c #E1C799",
"A. c #E1C89C",
"S. c #F6C794",
"D. c #F5CA99",
"F. c #F7CD9F",
"G. c #EBDA94",
"H. c #F7E19B",
"J. c #FAE79D",
"K. c #FAE99F",
"L. c #C9C7BF",
"P. c #D3CFBE",
"I. c #E3CCA4",
"U. c #E4CFAA",
"Y. c #FFCAA1",
"T. c #FACDA5",
"R. c #F5CDA1",
"E. c #E5D0AB",
"W. c #E9D1A1",
"Q. c #F8D3A7",
"!. c #F5DDA0",
"~. c #FFD0AA",
"^. c #F6D8AA",
"/. c #E8D7B7",
"(. c #E7D6BA",
"). c #E9D7B9",
"_. c #E9D9BC",
"`. c #FADAB3",
"'. c #F9E7A8",
"]. c #FAE9A0",
"[. c #F8E7BF",
"{. c #F5E8B9",
"}. c #8DABCD",
"|. c #8EB0D3",
" X c #9CB7D6",
".X c #BBD1E9",
"XX c gray77",
"oX c #C1C1C1",
"OX c #CFCDC7",
"+X c #CACACA",
"@X c #CFCFCF",
"#X c #DBD7C7",
"$X c #DFDBCA",
"%X c #D1D1D1",
"&X c gray84",
"*X c #DADADA",
"=X c #DEDEDE",
"-X c #E5E0C9",
";X c #EAE4CD",
":X c #FAE5C6",
">X c #FFE3CF",
",X c #F9EACC",
"<X c #F9EDCD",
"1X c #F6E9CC",
"2X c #FCF2CA",
"3X c #EBE6D3",
"4X c #EDE9D7",
"5X c #F7EED2",
"6X c #F1EBD3",
"7X c #F8EFD3",
"8X c #F4ECDD",
"9X c #FFEEDB",
"0X c #F6F0D6",
"qX c #FDF5D6",
"wX c #FBF2D4",
"eX c #F6F1DD",
"rX c #FDF5D8",
"tX c #FDF6D9",
"yX c #FBF5DB",
"uX c #C7DAEF",
"iX c #C8D9ED",
"pX c gray90",
"aX c #E7E7E7",
"sX c #E1E1E1",
"dX c #EAEAEA",
"fX c #EDEDED",
"gX c #F5EFE6",
"hX c #F7F3E1",
"jX c #FAF6E2",
"kX c #FAF6E5",
"lX c #FDF5E5",
"zX c #FCF8E6",
"xX c #F4F1ED",
"cX c #FCF3EB",
"vX c #FDF9EB",
"bX c #EBF3FC",
"nX c #E5F1FC",
"mX c #F3F3F3",
"MX c gray94",
"NX c #F7F7F7",
"BX c #F4F4F4",
"VX c #FBF9F2",
"CX c #FDFBF6",
"ZX c #FDFAF3",
"AX c #F5FCFF",
"SX c #F9F9F9",
"DX c #FAFAFA",
"FX c #FBFBF9",
"GX c #FEFDF9",
"HX c #FDFDFD",
"JX c gray99",
"KX c #FEFEFE",
"LX c gray100",
"PX c #FFFFFE",
"IX c #FFFFFD",
"UX c #FCFBFC",
/* pixels */
"LXLXLXLXLXLXLXLXLXLXLXLXLXLXLXLXLXLXLXLXLXLXLXLXLXLXLXLXLXLXLXLX",
"LXLXLXLXLXLXLXLXLXLXLXLXLXU.X.=.CXLXLXLXLXLXLXLXLXLXLXLXLXLXLXLX",
"LXLXLXLXLXLXLXLXLXLXLXLX).!.2X~ [ LXLXLXLXLXLXLXLXLXLXLXLXLXLXLX",
"LXLXLXLXLXLXLXLXLXLXLXLX&.LXE L A LXLXLXLXLXLXLXLXLXLXLXLXLXLXLX",
"LXLXLXLXLXLXLXLXLXLXLXLX,.e.K K S LXLXLXLXLXLXLXLXLXLXLXLXLXLXLX",
"LXLXLXLXLXLXLXLXLXLXLXLXVXy V b 1.LXLXLXLXLXLXLXLXLXLXLXLXLXLXLX",
"LXLXLXLXLXLXLXLXLXLXLXLXLXLXyXvXLXLXxX&.c } /.LXLXLXLXLXLXLXLXLX",
"LXLXLXLXLXLXLXLXLXLXLXLXLXLXLXLXLXgX+.wXZXw.b z.LXLXLXLXLXLXLXLX",
"LXLXLXLXLXLXLX/...X.FXLXLXLXLXLXLX} LXe.L L K Z cXLXLXLXLXLXLXLX",
"LXLXLXLXLXLXLX8.{.! ;.LXLXLXLXLXLX3.LXL L L L M E.LXLXLXLXLXLXLX",
"LXLXLXLXLXLXLXM.q.J &.LXLXLXLXLXLX4.GXK L L K T <.LXLXLXLXLXLXLX",
"LXLXLXLXLXLXLX;.S y 8XLXLXLXLXLXLXc E L L L K K B x c a >.VXLXLX",
"LXLXLXLXLXLXLXLXLXLXLXLXLXLXLXLXLX(.B K K L L K t.LXGXt.T y 8XLX",
"LXLXLXLXLXLXLXLXLXLXLXLXLXLXLXLXLXLXI.c b M L K.vXW L L K J i LX",
"LXLXLXLXLXLXLXLXLXjXzXFXSX .$.c _.LXLXLXLX-.0.LXW L L L K K V I.",
"LXZ.^.+.ZXLXLXLXUXyXqXjX<.-XC.U a FXLXLXLXE.H.K.L L L K K K T  .",
"LX:.K.M [.LXLXGXFXwX6.T.| hXe e l SXFXLXLXn.'.r.L L L L L L K c ",
"LXZ.b z VXUXSXNXhXwX2.@ d 9.U q t MXSXFXLXU.M K L L L L L L R %.",
"LXLXLXlXyXqXyXqXyXzXSX6.= : @.c b.pXMXSXGX&.J L L L L L K K V I.",
"LXLXzXyX' S.D.S.N.d / / : = = ^.7X*Xk.i O.F K K L L L L K J i LX",
"LXUXzXyX2.] ` ` < ; $ f #.] > + D.m.o.pXG.Q K K K K L K T x 8XLX",
"LXLXSXjXyXyXlX6.> ; x.lXnXbX>X_ + j 3Xv w e H K b c z p 1.FXLXLX",
"LXFXSXMX8XwXS.$ = 5.AXd.i.p.|.gXg # ,X5 9 e e M 1.LXLXLXLXLXLXLX",
"LXLXkXqX:X< & < > 9X X  i.u.u.uXv.$ V.U 8 0 e m U.LXLXLXLXLXLXLX",
"LXkXqXc.= $ g < s vX}.  i.i.u..XF.$ d E 2 7 q u xXLXLXLXLXLXLXLX",
"kXqXQ.# & `.,X; = T.bXa.y.u.d.UX' % g U 2 8 r l.NXLXLXLXLXLXLXLX",
"yX`.O N.:XqX6XD.- f >XUXiXuXLXv.: % R.*.X 3 b.MXNXLXLXLXLXLXLXLX",
"jX,XR.qX6X$Xh.5Xv.: < 6.~.Y.` - - 7.5XP.h.+X=XfXNXLXLXLXLXLXLXLX",
"NXhXeX4X+XXXj.$X<X& - & & $ = = k :X;Xf.j.@XsXMXNXLXLXLXLXLXLXLX",
"NXMXpX*X%X@X+XXX;X:X) > ; - n G D -Xf.h.XX&XaXNXSXLXLXLXLXLXLXLX",
"SXNXfXpX=X=X=X*X&X3XwXwXW.D U C 4 f.h.oX%XsXfXNXLXLXLXLXLXLXLXLX",
"SXNXBXfXfXfXfXdXpX*X%XOXXX^ o 1 g.j.XX@X=XdXmXSXGXLXLXLXLXLXLXLX"
};
