/* XPM */
static char *render_lux_dots[] = {
/* columns rows colors chars-per-pixel */
"32 32 256 2",
"   c #010101",
".  c #050606",
"X  c #0A0909",
"o  c #0E0E0E",
"O  c #0B0C0C",
"+  c #0F0F10",
"@  c #111111",
"#  c #151515",
"$  c #1A1A1A",
"%  c #21201F",
"&  c #242423",
"*  c #2F2F2E",
"=  c #323131",
"-  c gray21",
";  c #3B3A3A",
":  c #7A6330",
">  c #464746",
",  c #4A4A4A",
"<  c #5F5F5F",
"1  c #555555",
"2  c #626262",
"3  c #6A6A6A",
"4  c #7A7A7A",
"5  c #AD7F2D",
"6  c #AA772D",
"7  c #837147",
"8  c #827E6E",
"9  c #BA971A",
"0  c #B39316",
"q  c #B18425",
"w  c #B1902A",
"e  c #AE863E",
"r  c #A3823C",
"t  c #B28739",
"y  c #CDAA19",
"u  c #CDA51C",
"i  c #D1AD18",
"p  c #D4AF18",
"a  c #DFB91A",
"s  c #DDB61B",
"d  c #E2BB1B",
"f  c #E9BF1D",
"g  c #C79A24",
"h  c #C5922A",
"j  c #C79438",
"k  c #CB9C3E",
"l  c #D49B32",
"z  c #DC9F36",
"x  c #D39C3D",
"c  c #D49D3B",
"v  c #D99F38",
"b  c #D9A52B",
"n  c #DEA235",
"m  c #DBA039",
"M  c #DAA13D",
"N  c #DFA23A",
"B  c #D8B938",
"V  c #E6AE2E",
"C  c #E1AA2D",
"Z  c #EEBD24",
"A  c #ECBD23",
"S  c #E8B02D",
"D  c #ECB828",
"F  c #E5A932",
"G  c #E6AC30",
"H  c #E4A733",
"J  c #ECBF35",
"K  c #EBC21B",
"L  c #F2C61E",
"P  c #F3C91C",
"I  c #F1C81C",
"U  c #F4CA1C",
"Y  c #F4CA1D",
"T  c #F4C91D",
"R  c #E9C32A",
"E  c #F0C121",
"W  c #F2C520",
"Q  c #F5CE2F",
"!  c #F3CB24",
"~  c #F5CF31",
"^  c #F2CC3F",
"/  c #F1C635",
"(  c #BC9442",
")  c #B69655",
"_  c #B99759",
"`  c #888675",
"'  c #8F8B79",
"]  c #928D7D",
"[  c #BC9F61",
"{  c #CB9D4D",
"}  c #C89F57",
"|  c #C5A04D",
" . c #D7A243",
".. c #DAA240",
"X. c #D3A34E",
"o. c #D4AD48",
"O. c #CBA451",
"+. c #CCA956",
"@. c #D7AA58",
"#. c #DEAF5B",
"$. c #D7AB56",
"%. c #E2A84B",
"&. c #E4B54E",
"*. c #E2A751",
"=. c #E3B35D",
"-. c #D0A761",
";. c #D7AE63",
":. c #D5AC62",
">. c #D8AE63",
",. c #D7B069",
"<. c #D8B36F",
"1. c #DDB163",
"2. c #D7B271",
"3. c #D9B472",
"4. c #D8BA76",
"5. c #DAB87C",
"6. c #DAB87A",
"7. c #E5B060",
"8. c #EBBD6B",
"9. c #E9BA75",
"0. c #F3CF54",
"q. c #F7D857",
"w. c #F6D75C",
"e. c #F7D864",
"r. c #EFD97C",
"t. c #F8DF75",
"y. c #F9E17D",
"u. c #868888",
"i. c #8C8D8D",
"p. c #898989",
"a. c gray52",
"s. c #9A9684",
"d. c #979382",
"f. c #929292",
"g. c gray59",
"h. c #9D9D9D",
"j. c #A29E8C",
"k. c #A5A18F",
"l. c #B4A589",
"z. c #ABA694",
"x. c #AFAB98",
"c. c #A5A291",
"v. c #B4AF9C",
"b. c #B7B29E",
"n. c #B8B39F",
"m. c #A7A7A7",
"M. c #ADADAD",
"N. c #B7B4A1",
"B. c #B8B4A3",
"V. c #B6B6B6",
"C. c #BCBBBC",
"Z. c #C9B38C",
"A. c #DCBD85",
"S. c #C0B591",
"D. c #C9B992",
"F. c #C2BEAC",
"G. c #DEC18D",
"H. c #DAC99F",
"J. c #D4C29A",
"K. c #EFCA85",
"L. c #E1C79A",
"P. c #EFDE96",
"I. c #F7E19B",
"U. c #FAE99F",
"Y. c #F8E491",
"T. c #C5C0AE",
"R. c #D4CCA9",
"E. c #C5C0B0",
"W. c #CECAB3",
"Q. c #C7C3B8",
"!. c #D3CDB6",
"~. c #D3CEBC",
"^. c #D7D2BE",
"/. c #E3CCA4",
"(. c #E5CFAA",
"). c #ECDBA3",
"_. c #E5D1AB",
"`. c #F5DDA0",
"'. c #F4DCA9",
"]. c #E8D7B7",
"[. c #E7D6BA",
"{. c #E7D7BC",
"}. c #E9D7B9",
"|. c #FAE9A0",
" X c #F9E7A8",
".X c #FBEDB4",
"XX c #C2C3C2",
"oX c #C9C9C9",
"OX c #D9D4C3",
"+X c #DED9C5",
"@X c #CFD1D1",
"#X c #D3D3D3",
"$X c #D9D9D9",
"%X c #E2DDC6",
"&X c #E2DCC3",
"*X c #E2DDC8",
"=X c #E1DDCD",
"-X c #E0DFDC",
";X c #E9E2C6",
":X c #EBE5CB",
">X c #EEE8CE",
",X c #EFE8CB",
"<X c #E5E0CB",
"1X c #F2EBCC",
"2X c #FBF0C6",
"3X c #FCF2CA",
"4X c #E6E3D2",
"5X c #E9E4D1",
"6X c #EBE7D6",
"7X c #EEE9D1",
"8X c #EDE9D6",
"9X c #EFEBDB",
"0X c #F4EED3",
"qX c #F2EDD9",
"wX c #F4EDDE",
"eX c #F2ECDC",
"rX c #F7F0D2",
"tX c #F7F1D7",
"yX c #F9F1D3",
"uX c #FAF3D4",
"iX c #FBF4D6",
"pX c #FCF5D6",
"aX c #FCF4D5",
"sX c #FCF3D2",
"dX c #F6F1DD",
"fX c #FBF3DC",
"gX c #E2E2E2",
"hX c #E5E4E4",
"jX c #E9E9E9",
"kX c #EDEDED",
"lX c #F5EFE6",
"zX c #F7F3E3",
"xX c #F5F1E1",
"cX c #FAF5E1",
"vX c #FAF6E5",
"bX c #F8F3E2",
"nX c #F7F3EE",
"mX c #F9F5ED",
"MX c #FDF8E9",
"NX c #FEFAEA",
"BX c #FDF9ED",
"VX c #F3F3F3",
"CX c #F1F1F1",
"ZX c #F5F5F5",
"AX c #FCFBF7",
"SX c #FCF9F3",
"DX c #F9F9F9",
"FX c #F8F8F8",
"GX c #FAFAFA",
"HX c #FEFDF9",
"JX c gray99",
"KX c #FDFDFD",
"LX c #FEFEFE",
"PX c gray100",
"IX c #FFFFFE",
"UX c #FFFFFD",
/* pixels */
"PXPXPXPXPXPXPXPXPXPXPXPXPXPXPXPXPXPXPXPXPXPXPXPXPXPXPXPXPXPXPXPX",
"PXPXPXPXPXPXPXPXPXPXPXPXPX(.$.;.AXPXPXPXPXPXPXPXPXPXPXPXPXPXPXPX",
"PXPXPXPXPXPXPXPXPXPXPXPX}.`.3X^  .PXPXPXPXPXPXPXPXPXPXPXPXPXPXPX",
"PXPXPXPXPXPXPXPXPXPXPXPX>.PX! U G PXPXPXPXPXPXPXPXPXPXPXPXPXPXPX",
"PXPXPXPXPXPXPXPXPXPXPXPX3.e.Y Y F PXPXPXPXPXPXPXPXPXPXPXPXPXPXPX",
"PXPXPXPXPXPXPXPXPXPXPXPXSXm D G 5.PXPXPXPXPXPXPXPXPXPXPXPXPXPXPX",
"PXPXPXPXPXPXPXPXPXPXPXPXPXHXtXBXPXPXnX:.M X.].PXPXPXPXPXPXPXPXPX",
"PXPXPXPXPXPXPXPXPXPXPXPXPXPXPXPXPXlX*.yXSXw.S A.PXPXPXPXPXPXPXPX",
"PXPXPXPXPXPXPX].#.@.GXPXPXPXPXPXPXX.PXe.U U Y G mXPXPXPXPXPXPXPX",
"PXPXPXPXPXPXPX9..X/ <.PXPXPXPXPXPX7.PXY U U U Z (.PXPXPXPXPXPXPX",
"PXPXPXPXPXPXPXK.q.L ;.PXPXPXPXPXPX8.HXY U U U E 6.PXPXPXPXPXPXPX",
"PXPXPXPXPXPXPX<.F z wXPXPXPXPXPXPXM W U U U U U S v N v 2.SXPXPX",
"PXPXPXPXPXPXPXPXPXPXPXPXPXPXPXPXPX{.S Y U U U Y y.PXHXt.Z z eXPX",
"PXPXPXPXPXPXPXPXPXJXJXJXJXJXJXPXPXPX/.z V D U U.NX~ Y U U L c PX",
"PXPXPXPXNXNXvXwXqXdXcXcXzX@.=.M {.PXPXPXPX,.0.PXQ Y U U U Y D /.",
"PXL.'.%.fXcXuXrXrXyXaXiX4.).r.R l DXJXPXPX_.I.U.U Y U U U ! E +.",
"PX1.Y.A ).aX&XN.k.N.E.~.| uXa K b ZXDXJXJXG. Xt.Y Y U U U U T ..",
"PXL.b l 1Xn.] 8   . o ` 7 w L a l jXVXDXJX(.Z Y U U U U U U E -.",
"PXvX8XaX!.B., @ o > 2 < ; : 5 n R.qXkXZXSX:.L U U U U U Y Y D /.",
"PXcX1X%X4X$Xm.& % f.$X@Xu.@ z.>X1X6XZ.c &.J T U U U U U U W x PX",
"NXwXyX^.dXDXC.= & m.VXkXg.# c.4XiXD.+.jXP.0.U U U I I I E z lXPX",
"NXqX1XT.C.oXf.& $ i.oXXX4 + ; OXiX .#XB K K U U S M n v 5.AXPXPX",
"MX8X;Xk.> , - @ X = , , * . $ x.0XX.oXp d K I f 5.PXPXPXPXPXPXPX",
"MX8X,Xs.o o X     O o o o   . s.rX} F.i a K I f _.PXPXPXPXPXPXPX",
"MX8XiXF.T.f.3 $ # < p.a.1 X d.~.0X( 9 y a K K H mXPXPXPXPXPXPXPX",
"GXdX>X&X6XkXM.* & g.hXgXi.@ z.:X0X!.6 u a K V A.PXPXPXPXPXPXPXPX",
"HXzX5XsXqXzXV.* & m.VXjXf.] S.3X*XOXQ._ j { {.PXPXPXPXPXPXPXPXPX",
"PXZXwX8XrX<XE.' $ 4 m.~.n.r P.o.[ C.@XgXCXZXPXPXPXPXPXPXPXPXPXPX",
"PXDXzX6X:XrXW.c.] s.c.b.) yXB y h oX$XjXVXDXPXPXPXPXPXPXPXPXPXPX",
"PXGXFXxX6X<X:XaX:X;X1XaXO.R.y i q #XhXkXZXPXPXPXPXPXPXPXPXPXPXPX",
"JXJXDXVXxX6X5X*X+X%X=X+XD.g 0 9 t gXjXZXDXPXPXPXPXPXPXPXPXPXPXPX",
"PXPXJXDXVXkXgX6X4X4X=X+XXXl.e _ $XkXVXDXDXPXPXPXPXPXPXPXPXPXPXPX"
};
