/* XPM */
static char *render_luxEnvironmentLight[] = {
/* columns rows colors chars-per-pixel */
"32 32 256 2",
"   c #212B15",
".  c #2E3722",
"X  c #343C24",
"o  c #3B4329",
"O  c #384025",
"+  c #414728",
"@  c #444C34",
"#  c #525A33",
"$  c #575E38",
"%  c #5F663B",
"&  c #5C6332",
"*  c #313F64",
"=  c #364048",
"-  c #374565",
";  c #464F49",
":  c #475047",
">  c #4E5840",
",  c #49544F",
"<  c #515B4F",
"1  c #4A5457",
"2  c #5B644E",
"3  c #646D4A",
"4  c #6C754B",
"5  c #636C53",
"6  c #697258",
"7  c #5B6660",
"8  c #757F68",
"9  c #65717B",
"0  c #9B6D29",
"q  c #82723B",
"w  c #9F7B39",
"e  c #A27922",
"r  c #A47C35",
"t  c #78805E",
"y  c #7C8674",
"u  c #BE9A1A",
"i  c #AB8A18",
"p  c #BF8E2A",
"a  c #BE8D35",
"s  c #C09F16",
"d  c #C4A316",
"f  c #CDA91A",
"g  c #CBA719",
"h  c #D4AF18",
"j  c #DBB519",
"k  c #D5B018",
"l  c #E4BC1A",
"z  c #D39B35",
"x  c #DC9F36",
"c  c #D49D3C",
"v  c #D99F38",
"b  c #C99830",
"n  c #DEAA2A",
"m  c #DAB725",
"M  c #C1A839",
"N  c #DEA037",
"B  c #DAA13B",
"V  c #CEB13A",
"C  c #E5AD2E",
"Z  c #EEBD24",
"A  c #EFBF23",
"S  c #E8B02D",
"D  c #ECB828",
"F  c #ECBF2A",
"G  c #E3A733",
"H  c #E5AA32",
"J  c #E9BD34",
"K  c #ECC31B",
"L  c #F2C61E",
"P  c #F2C91C",
"I  c #F4CA1C",
"U  c #F4CA1D",
"Y  c #F4C91D",
"T  c #EDC122",
"R  c #EBC529",
"E  c #F1C321",
"W  c #F3CA22",
"Q  c #F5CE2F",
"!  c #EBCA3D",
"~  c #F3CA37",
"^  c #80845F",
"/  c #968558",
"(  c #BF9844",
")  c #AB8B52",
"_  c #BD9C50",
"`  c #848A6C",
"'  c #8D946E",
"]  c #9B9364",
"[  c #8D9372",
"{  c #96967C",
"}  c #A5967D",
"|  c #9AA07D",
" . c #C5994A",
".. c #CEA44A",
"X. c #D7A243",
"o. c #D3A34E",
"O. c #DAA541",
"+. c #DFB14C",
"@. c #D9AB58",
"#. c #DCB258",
"$. c #E1A84B",
"%. c #E2A751",
"&. c #E5BA51",
"*. c #D0A761",
"=. c #D6AD63",
"-. c #D5AB60",
";. c #D8AE63",
":. c #D7B069",
">. c #DBB269",
",. c #D9B472",
"<. c #DAB87C",
"1. c #DAB874",
"2. c #C4A766",
"3. c #E4B362",
"4. c #EBBD6B",
"5. c #E9BA75",
"6. c #F3CF54",
"7. c #F7D857",
"8. c #F6D75C",
"9. c #F7D864",
"0. c #EFD97E",
"q. c #F8DF75",
"w. c #F9E17D",
"e. c #455886",
"r. c #556A9D",
"t. c #566897",
"y. c #677383",
"u. c #6C7993",
"i. c #5C72AC",
"p. c #647BBB",
"a. c #7B8C9C",
"s. c #7A90BC",
"d. c #6D85C8",
"f. c #758DC9",
"g. c #7A92C9",
"h. c #6E8BD3",
"j. c #7794DC",
"k. c #7897DD",
"l. c #7E9FE7",
"z. c #7CA0E9",
"x. c #9D9D83",
"c. c #808C90",
"v. c #9CA498",
"b. c #A7AA86",
"n. c #B8AB88",
"m. c #ADAB92",
"M. c #AEAE9A",
"N. c #ACBA9D",
"B. c #B5B399",
"V. c #889CB9",
"C. c #96A5A8",
"Z. c #ACACAC",
"A. c #A2B7AE",
"S. c #B8B5AB",
"D. c #B4B4B4",
"F. c gray75",
"G. c #B8BBB7",
"H. c #DCBD85",
"J. c #BEC0BD",
"K. c #DDC08D",
"L. c #D8C69A",
"P. c #EFCA85",
"I. c #E1C79A",
"U. c #E8D792",
"Y. c #F8E59D",
"T. c #C4C3AD",
"R. c #CBC7AC",
"E. c #C6C6BA",
"W. c #DBD3B3",
"Q. c #D8D4BA",
"!. c #E3CCA4",
"~. c #E4CFA9",
"^. c #E5D1AB",
"/. c #E6D3A3",
"(. c #F5DDA4",
"). c #E8D7B7",
"_. c #E5D5BA",
"`. c #E9D7B9",
"'. c #F7E5A5",
"]. c #F7ECBF",
"[. c #FBEDB4",
"{. c #8199D9",
"}. c #97ACC6",
"|. c #8EA3D5",
" X c #99B1D2",
".X c #B4BAC3",
"XX c #B6BFD0",
"oX c #89A3E8",
"OX c #80A5F3",
"+X c #84AAF4",
"@X c #95B5FC",
"#X c #98B6F7",
"$X c #A2BCF5",
"%X c #A2BFFA",
"&X c #B8C0CE",
"*X c #ACC5DA",
"=X c #A8C8FB",
"-X c #AFD0FA",
";X c #B7DFFF",
":X c #B5DCFA",
">X c #B7D7F8",
",X c #BEE6FF",
"<X c #BEE8FF",
"1X c #CECEC4",
"2X c #C7C7C7",
"3X c #D9D6C4",
"4X c #DCD9CA",
"5X c #D4D2C8",
"6X c gray83",
"7X c #DDDDDD",
"8X c #E1DDCC",
"9X c #E5DFC5",
"0X c #EBE6CC",
"qX c #F2EBCF",
"wX c #FCF2CA",
"eX c #EAE6D4",
"rX c #E9E4D3",
"tX c #F3EDD3",
"yX c #F3ECDD",
"uX c #F7F0D3",
"iX c #F7F0D6",
"pX c #FAF2D5",
"aX c #F6F1DC",
"sX c #F9F2D9",
"dX c #F9F3DC",
"fX c #C2E7FF",
"gX c #C7ECFF",
"hX c #CFF2FF",
"jX c #D6F5FF",
"kX c #E1E1E1",
"lX c #E4E4E4",
"zX c gray92",
"xX c #EEEEEE",
"cX c #F5EFE6",
"vX c #F5F1E1",
"bX c #FBF7E7",
"nX c #FAF5E2",
"mX c #F9F5ED",
"MX c #FDF9E9",
"NX c #FCF9EB",
"BX c #FAF5EB",
"VX c #EDFFFF",
"CX c #E0F9FF",
"ZX c #F2F2F2",
"AX c #F5F5F5",
"SX c #F6F6F6",
"DX c #FCFAF5",
"FX c #F9F9F9",
"GX c gray98",
"HX c #FBFBFB",
"JX c #FEFDF9",
"KX c #FDFDFD",
"LX c gray99",
"PX c #FEFEFE",
"IX c gray100",
"UX c #FFFFFD",
/* pixels */
"IXIXIXIXIXIXIXIXIXIXIXIXIXIXIXIXIXIXIXIXIXIXIXIXIXIXIXIXIXIXIXIX",
"IXIXIXIXIXIXIXIXIXIXIXIXIX~.@.;.DXIXIXIXIXIXIXIXIXIXIXIXIXIXIXIX",
"IXIXIXIXIXIXIXIXIXIXIXIX).(.wX~ X.IXIXIXIXIXIXIXIXIXIXIXIXIXIXIX",
"IXIXIXIXIXIXIXIXIXIXIXIX=.IXW I H IXIXIXIXIXIXIXIXIXIXIXIXIXIXIX",
"IXIXIXIXIXIXIXIXIXIXIXIX,.9.I I G IXIXIXIXIXIXIXIXIXIXIXIXIXIXIX",
"IXIXIXIXIXIXIXIXIXIXIXIXDXN D H <.IXIXIXIXIXIXIXIXIXIXIXIXIXIXIX",
"IXIXIXIXIXIXIXIXIXIXIXIXIXIXsXNXIXIXmX@.X.o.).IXIXIXIXIXIXIXIXIX",
"IXIXIXIXIXIXIXIXIXIXIXIXIXIXIXIXIXcX%.pXDX7.C H.IXIXIXIXIXIXIXIX",
"IXIXIXIXIXIXIX).#.@.GXIXIXIXIXIXIXo.IX9.I I I G mXIXIXIXIXIXIXIX",
"IXIXIXIXIXIXIX5.[.~ ,.IXIXIXIXIXIX3.IXI I I I A ~.IXIXIXIXIXIXIX",
"IXIXIXIXIXIXIXP.7.E -.IXIXIXIXIXIX4.JXI I I I L <.IXIXIXIXIXIXIX",
"IXIXIXIXIXIXIX:.G x yXIXIXIXIXIXIXB W I I I I I S N B N ,.DXIXIX",
"IXIXIXIXIXIXIXIXIXIXIXIXIXIXLXIXIX_.C Y Y I I I w.IXJXq.A x yXIX",
"IXIXIXIXIXIXLXIXGXbXbXGXFXFXLXLXIXIX!.N G Z I '.NXQ Y I P L c IX",
"IXIXIXIXIXNXnXdXsXsXsXdXaX@.#.O._.JXIXIXIX;.6.IXQ Y I I I I D !.",
"IXI.(.$.iXiXpX8X1XE.E.9X1.'.P.R z SXGXGXIX^.Y.Y.I Y I I I P L *.",
"IX3.Y.R '.5XG.p.p.i.r.e./ 3XW T n xXSXGXKXH.'.q.Y Y I I I I Y O.",
"IXL.H N 1XXXl.s.f.j.h.p.r./ M K z lXxXSXGX~.F Y I Y I I I I E *.",
"IXbXiX4X&XV.a.t V.z.z.h.p.r.* ( ~.rXkXxXZX-.L I I I I I Y Y D ~.",
"IXnXiXG.y [ ` ^ C.@Xz.l.h.p.r.x.0X7XH.b +.J P I I I I I I L c IX",
"bXiX4X9 y ' | | *X#X@X+Xz.d.i.* Q.L.#.7XU.6.P I Y Y I I T x vXIX",
"bXsXE.7 a.[ b.N.;X=X%X#X+Xk.s.e.S.O.4XV j K K P C B x c <.DXIXIX",
"nXuXF.% 4 6 t A.,X,X;X-X#Xl.d.r.M.6.5Xd k l K L <.IXIXIXIXIXIXIX",
"bXuXJ.> 6 < 5 v.,XgXCXhX=XoXf.t.B.3.W.d k l K K ^.IXIXIXIXIXIXIX",
"bXiXT.= , 2 & y *XjXVXjX-XoXg.1 T...n s h l K G mXIXIXIXIXIXIXIX",
"FXiX0X{ + & % 3 y >XhXfX%X{.u.x.9XW.0 s h l n H.IXIXIXIXIXIXIXIX",
"FXvXiXm.X o # @ , }.}. X|.y.: n.tXQ.S.) a  ._.LXIXIXIXIXIXIXIXIX",
"GXAXaXqXx.  . o : 5 $ 2 5 + ] &.2.Z..X6XlXZXGXIXIXIXIXIXIXIXIXIX",
"LXSXvXtXqXm.{ X X X X X 4 b.! m p D.2X7XzXSXGXIXIXIXIXIXIXIXIXIX",
"LXFXZXyXtXuXQ.B.x.{ x.m. .].m g e 2X6XlXxXGXIXIXIXIXIXIXIXIXIXIX",
"LXLXSXzXkXrXeXqXpXpXpX0XH.b d i r 6XkXzXZXGXIXIXIXIXIXIXIXIXIXIX",
"IXLXFXAXzXkX6XrX8X4X3X3XD.} w ) 6XlXzXZXGXIXIXIXIXIXIXIXIXIXIXIX"
};
