/* XPM */
static char *render_lux_wrinkled[] = {
/* columns rows colors chars-per-pixel */
"32 32 256 2",
"   c #1D1D1D",
".  c #2F3030",
"X  c #41413F",
"o  c #414242",
"O  c #4E4E4E",
"+  c #4B4B4B",
"@  c #545455",
"#  c #5E5E5E",
"$  c #595A59",
"%  c #605E60",
"&  c #5F6462",
"*  c #676767",
"=  c gray38",
"-  c #6A6A6A",
";  c #6F6F6F",
":  c #726F70",
">  c #6F7170",
",  c #747474",
"<  c #777778",
"1  c #7A7A7B",
"2  c #AF7A2E",
"3  c #BE9A1A",
"4  c #B69516",
"5  c #B0873F",
"6  c #B5893A",
"7  c #B58725",
"8  c #CEAB1A",
"9  c #D3AD1A",
"0  c #D5B118",
"q  c #D8B319",
"w  c #E3BC1A",
"e  c #E3BC1C",
"r  c #C7932A",
"t  c #C99B24",
"y  c #CA9639",
"u  c #C8993B",
"i  c #DA9E36",
"p  c #DC9F36",
"a  c #D69E3B",
"s  c #D39C3D",
"d  c #D99F38",
"f  c #D59D32",
"g  c #DCA72B",
"h  c #D6A135",
"j  c #DCA036",
"k  c #DBA039",
"l  c #DBA13C",
"z  c #D6B738",
"x  c #E6AE2E",
"c  c #E5BF21",
"v  c #EEBD25",
"b  c #EFBF23",
"n  c #E8B02D",
"m  c #ECB828",
"M  c #E5A932",
"N  c #E6AD30",
"B  c #E4A733",
"V  c #EEC51B",
"C  c #EBC21C",
"Z  c #EAC21D",
"A  c #F2C61F",
"S  c #F2C91C",
"D  c #F4CA1C",
"F  c #F4CA1D",
"G  c #F4C91D",
"H  c #DFC03F",
"J  c #EBC52A",
"K  c #F0C121",
"L  c #F2C520",
"P  c #F5CE2F",
"I  c #F3CB24",
"U  c #EDC035",
"Y  c #F5CF31",
"T  c #F2C83A",
"R  c #F2D03F",
"E  c #BA9240",
"W  c #B99657",
"Q  c #B2985F",
"!  c #BD9A5B",
"~  c #928E7E",
"^  c #AD9867",
"/  c #BC9E60",
"(  c #CC9E4D",
")  c #CDA642",
"_  c #D7A242",
"`  c #D6A244",
"'  c #DCA340",
"]  c #D3A34E",
"[  c #D9AE4F",
"{  c #C8A256",
"}  c #D3AA55",
"|  c #D4AC58",
" . c #DEAF5B",
".. c #D9AA56",
"X. c #E2A84B",
"o. c #E5B64F",
"O. c #E2BC44",
"+. c #E2A751",
"@. c #E4B45E",
"#. c #CDAD65",
"$. c #D0A761",
"%. c #D7AE63",
"&. c #D6AC62",
"*. c #D8AE63",
"=. c #D7B069",
"-. c #D8B36F",
";. c #DDB163",
":. c #D7B271",
">. c #D9B472",
",. c #D7B977",
"<. c #DAB87C",
"1. c #DAB87A",
"2. c #E5B060",
"3. c #EBBD6B",
"4. c #E9BA75",
"5. c #F3CF54",
"6. c #F7D857",
"7. c #F6D75C",
"8. c #F7D864",
"9. c #F8DF75",
"0. c #F2DC7E",
"q. c #F9E17D",
"w. c #868687",
"e. c #8E8E8D",
"r. c #898989",
"t. c #8F9191",
"y. c #979798",
"u. c #99999A",
"i. c #A29E8D",
"p. c #ACA898",
"a. c #B3AF9F",
"s. c #B6A78B",
"d. c gray64",
"f. c #AFAFAF",
"g. c #B6B3A2",
"h. c #B7B4A4",
"j. c #B9B5A2",
"k. c #BBB7A7",
"l. c #BEB8A4",
"z. c #BEBBAA",
"x. c #AFAFB1",
"c. c #B6B6B6",
"v. c #B3B2B2",
"b. c #CEB78F",
"n. c #DCBD85",
"m. c #C8B891",
"M. c #C0BCAC",
"N. c #DEC18D",
"B. c #D2C099",
"V. c #EFCA85",
"C. c #E1C799",
"Z. c #E0C89B",
"A. c #F4E19A",
"S. c #FAE99F",
"D. c #F9E491",
"F. c #C7C2AE",
"G. c #D8CFAE",
"H. c #D9CAA2",
"J. c #C5C1B1",
"K. c #CAC5B2",
"L. c #CCC7B3",
"P. c #CDC9B4",
"I. c #CFCBBB",
"U. c #D2CCB6",
"Y. c #D1CCB9",
"T. c #D5CFB8",
"R. c #D7D2BD",
"E. c #DAD5BE",
"W. c #E3CCA4",
"Q. c #E5CFAA",
"!. c #E5D1AB",
"~. c #F5DDA0",
"^. c #F3DEA9",
"/. c #E8D7B7",
"(. c #E7D7BD",
"). c #E7D5B8",
"_. c #E9D7B9",
"`. c #E8D8BC",
"'. c #F7E4A4",
"]. c #FAE9A0",
"[. c #F2E2AF",
"{. c #F9E7A8",
"}. c #FBEDB4",
"|. c #C3C2C3",
" X c #C6C6C5",
".X c #C9C7C3",
"XX c #CECECE",
"oX c #CAC9CA",
"OX c #D7D2C1",
"+X c #DAD5C1",
"@X c #DAD6C6",
"#X c #DFD9C3",
"$X c #DEDACA",
"%X c #D4D4D4",
"&X c #D8D8D8",
"*X c #DDDCDC",
"=X c #E0DBC5",
"-X c #E3DDC5",
";X c #E2DECB",
":X c #E5E0CE",
">X c #EAE4CB",
",X c #EEE9CF",
"<X c #F1E6C0",
"1X c #F1EACE",
"2X c #FCF2CC",
"3X c #EAE5D2",
"4X c #ECE7D2",
"5X c #EDE9D8",
"6X c #E7E4D6",
"7X c #F3ECD0",
"8X c #F5EED2",
"9X c #F5EED5",
"0X c #F0EAD2",
"qX c #F2EDDA",
"wX c #F4EFDB",
"eX c #F4EDDF",
"rX c #F2EDDD",
"tX c #F7F1D6",
"yX c #F7F0D3",
"uX c #F8F1D3",
"iX c #F9F2D4",
"pX c #F9F2D5",
"aX c #FBF4D5",
"sX c #FCF3D4",
"dX c #F5F1DD",
"fX c #F7F1DA",
"gX c #FBF3DC",
"hX c #E4E4E4",
"jX c gray92",
"kX c #EEEDEE",
"lX c #F5EFE6",
"zX c #EFF1EF",
"xX c #F7F3E1",
"cX c #F5F1E1",
"vX c #F9F4E2",
"bX c #FAF6E5",
"nX c #FBF8E7",
"mX c #F4F2EE",
"MX c #F9F5ED",
"NX c #FCF8E9",
"BX c #FEFAEA",
"VX c #FDF9ED",
"CX c #F1F1F1",
"ZX c #F6F6F6",
"AX c #FCFBF7",
"SX c #FCF9F3",
"DX c #FBFBFB",
"FX c #FAFAFA",
"GX c #F8F8F8",
"HX c #FEFDF9",
"JX c gray99",
"KX c #FDFDFD",
"LX c #FEFEFE",
"PX c gray100",
"IX c #FFFFFE",
"UX c #FFFFFD",
/* pixels */
"PXPXPXPXPXPXPXPXPXPXPXPXPXPXPXPXPXPXPXPXPXPXPXPXPXPXPXPXPXPXPXPX",
"PXPXPXPXPXPXPXPXPXPXPXPXPXQ...*.AXPXPXPXPXPXPXPXPXPXPXPXPXPXPXPX",
"PXPXPXPXPXPXPXPXPXPXPXPX_.~.2XT ` PXPXPXPXPXPXPXPXPXPXPXPXPXPXPX",
"PXPXPXPXPXPXPXPXPXPXPXPX%.PXI D N PXPXPXPXPXPXPXPXPXPXPXPXPXPXPX",
"PXPXPXPXPXPXPXPXPXPXPXPX:.8.D D M PXPXPXPXPXPXPXPXPXPXPXPXPXPXPX",
"PXPXPXPXPXPXPXPXPXPXPXPXSXj m x <.PXPXPXPXPXPXPXPXPXPXPXPXPXPXPX",
"PXPXPXPXPXPXPXPXPXPXPXPXPXPXfXVXPXPXmX| ' ] ).PXPXPXPXPXPXPXPXPX",
"PXPXPXPXPXPXPXPXPXPXPXPXPXPXPXPXPXlX+.sXSX7.x n.PXPXPXPXPXPXPXPX",
"PXPXPXPXPXPXPX/. ...HXPXPXPXPXPXPX] PX8.D D G N MXPXPXPXPXPXPXPX",
"PXPXPXPXPXPXPX4.}.U :.PXPXPXPXPXPX2.PXD D D D v Q.PXPXPXPXPXPXPX",
"PXPXPXPXPXPXPXV.6.A %.PXPXPXPXPXPX3.HXG D D D K 1.PXPXPXPXPXPXPX",
"PXPXPXPXPXPXPX-.M j eXPXPXPXPXPXPXl I D D D D D n d j k :.SXPXPX",
"PXPXPXPXPXPXPXPXPXPXPXPXPXPXPXPXPX(.n D D D D D q.PXPX9.b p rXPX",
"PXPXPXPXPXPXPXPXPXPXPXPXJXJXPXPXPXPXW.p N v D ].NXY D D D A s PX",
"PXPXPXPXPXNXnXvXdXxXxXxXbX..@.' (.PXPXPXPX=.5.PXP D D D D D m W.",
"PXC.^.X.gXxXfX9X9XiXiX9X,.[.0.J i DXJXPXPX!.A.S.D D D D D A K | ",
"PX2.D.b [.iXiX+XK.P.R.=X[ 9XJ V g GXDXPXPXN.{.9.S S D D D D S _ ",
"PXB.x p 2X=XK.OX@XY.a.p.^ H Z q f kXZXDXPXQ.v S D D D D D D K | ",
"PXNXwXiXR.j.g.c. Xu.> . ~ Q _ h H.rXkXGXDX%.K D D D D D D D m Q.",
"PXbX9X>Xk.1 y.oX Xt.* $   i.Y.tX4X5Xb.a o.U D D D D D D D A s PX",
"PXdXiXP.g.u.c.kXmXv.# : > $ z.,X9XB.| jXA.R D D D D D D b i rXPX",
"nXqXiXj.k.x.|.&X*Xc.- @ * & z.-XyXu &XH Z V D D x l j a <.DXPXPX",
"nXwX9XP.XXkX*Xd.u.1 - o . O M.R.iX} %Xq w V S C <.PXPXPXPXPXPXPX",
"nXwXiX:XXX&X Xe.* O - O + * k.F.1X{ K.9 w V S v !.PXPXPXPXPXPXPX",
"HXeXaX4X@Xd.w.1 ; % < X + - M.T.>X6 3 9 w V V B MXPXPXPXPXPXPXPX",
"HXxXfX>XI.t.< r.e.e.# X @ p.K.7X-XU.2 9 w C x n.PXPXPXPXPXPXPXPX",
"JXbXqXaXK.h.w.f.d.< O = # g.H.`.+X$X X! y ( (.PXPXPXPXPXPXPXPXPX",
"PXbXrX>X9XP.J.$Xc.r.K.M.M.( '.) ! |.&XhXCXDXPXPXPXPXPXPXPXPXPXPX",
"JXDXxX5X0XsXE.=XR.j.K.E.#.8Xz 8 r XX*XjXZXDXPXPXPXPXPXPXPXPXPXPX",
"PXDXZXcXqX4X,XsX9X1X9X9X{ U.8 9 7 &XhXCXGXDXPXPXPXPXPXPXPXPXPXPX",
"JXJXDXZXrX5X4X;X=X=X+XE.m.t 4 4 6 hXCXZXDXJXPXPXPXPXPXPXPXPXPXPX",
"PXPXJXGXCXjXhX&X6X:X;X|. Xs.E Q 6XjXZXGXPXPXPXPXPXPXPXPXPXPXPXPX"
};
