/* XPM */
static char *render_lux_bilerp[] = {
/* columns rows colors chars-per-pixel */
"32 32 256 2",
"   c #A7742C",
".  c #00BC3F",
"X  c #00BA3F",
"o  c #46B700",
"O  c #44B900",
"+  c #2FCD00",
"@  c #2FCF00",
"#  c #30CD00",
"$  c #00EE0F",
"%  c #16E600",
"&  c #18E500",
"*  c #1AE300",
"=  c #04F601",
"-  c #03F900",
";  c #04F800",
":  c #00ED10",
">  c #00ED11",
",  c #00EB12",
"<  c #00D526",
"1  c #00D129",
"2  c #00D228",
"3  c #00C03C",
"4  c #00B941",
"5  c #00BE40",
"6  c #00A556",
"7  c #00A753",
"8  c #00A953",
"9  c #00A35A",
"0  c #00A458",
"q  c #008D6E",
"w  c #00906D",
"e  c #00916B",
"r  c #008D71",
"t  c #71956C",
"y  c #AF9015",
"u  c #B8941A",
"i  c #AE8224",
"p  c #AD843B",
"a  c #B79A3C",
"s  c #A8B333",
"d  c #CCAA17",
"f  c #CCA81B",
"g  c #D0AC18",
"h  c #D3AC1C",
"j  c #DDB619",
"k  c #E2BC1C",
"l  c #E8BE1D",
"z  c #C59526",
"x  c #CF983A",
"c  c #C79937",
"v  c #DC9F36",
"b  c #D39C3D",
"n  c #D79F3B",
"m  c #D99F38",
"M  c #D69A34",
"N  c #DEBD24",
"B  c #DCA236",
"V  c #DFAB31",
"C  c #D9A13D",
"Z  c #DCA139",
"A  c #D4A238",
"S  c #D7B93D",
"D  c #E6AE2E",
"F  c #E0AC2B",
"G  c #EEBD24",
"H  c #EFBF23",
"J  c #E8B02D",
"K  c #E0BF28",
"L  c #ECB828",
"P  c #E6BB27",
"I  c #E5A932",
"U  c #E6AC30",
"Y  c #E4A733",
"T  c #ECBF35",
"R  c #EAC21B",
"E  c #F1C61D",
"W  c #F3C91C",
"Q  c #F4CA1C",
"!  c #F4CA1D",
"~  c #F4C91D",
"^  c #DEC026",
"/  c #DFC233",
"(  c #EDC62A",
")  c #F0C121",
"_  c #F2C520",
"`  c #F4CC27",
"'  c #F5CF31",
"]  c #F1CC3F",
"[  c #F1C635",
"{  c #939350",
"}  c #B59357",
"|  c #9CA15A",
" . c #B8AD48",
".. c #BAA05D",
"X. c #A89665",
"o. c #C99C4C",
"O. c #CBAF4E",
"+. c #D7A243",
"@. c #D3A34E",
"#. c #DAA240",
"$. c #D5B340",
"%. c #C8AA56",
"&. c #D4AC55",
"*. c #D7AA58",
"=. c #DEAF5B",
"-. c #D9AA56",
";. c #E1A84B",
":. c #E2B44E",
">. c #E2A751",
",. c #E2B25D",
"<. c #D0A761",
"1. c #D6AD62",
"2. c #D8AE63",
"3. c #D7B069",
"4. c #DBB269",
"5. c #D7B271",
"6. c #D9B472",
"7. c #D4B778",
"8. c #DAB87C",
"9. c #DAB87A",
"0. c #E5B060",
"q. c #EBBD6B",
"w. c #E9BA75",
"e. c #A4D46B",
"r. c #B4CD75",
"t. c #AEDC73",
"y. c #8DEF6F",
"u. c #97E16D",
"i. c #8FEE70",
"p. c #8CF17E",
"a. c #F3CF54",
"s. c #F7D857",
"d. c #F6D75C",
"f. c #F7D864",
"g. c #ECD77E",
"h. c #F8DF75",
"j. c #F9E17D",
"k. c #007785",
"l. c #007885",
"z. c #007B83",
"x. c #00639B",
"c. c #779487",
"v. c #B1A286",
"b. c #81B8AE",
"n. c #85AFB9",
"m. c #BCBCBC",
"M. c #C9B88E",
"N. c #C6B18A",
"B. c #DCBD85",
"V. c #C0BEBA",
"C. c #8EDB94",
"Z. c #BDD182",
"A. c #B6DC85",
"S. c #87E685",
"D. c #88E386",
"F. c #9BF483",
"G. c #AFE586",
"H. c #BEEC9E",
"J. c #BEF09D",
"K. c #85C5A5",
"L. c #9CD6A5",
"P. c #A1C8BA",
"I. c #BEDBBD",
"U. c #DEC18D",
"Y. c #CBC093",
"T. c #CEDB9B",
"R. c #EFCA85",
"E. c #E1C79A",
"W. c #E7DC93",
"Q. c #F8E499",
"!. c #CFCDAF",
"~. c #D4CAA0",
"^. c #DED6AA",
"/. c #DCD9BA",
"(. c #E3CCA4",
"). c #E5CFAA",
"_. c #E5D1AB",
"`. c #E7D9AA",
"'. c #F5DDA4",
"]. c #E8D7B7",
"[. c #E7D6BA",
"{. c #E6D6BC",
"}. c #E9D7B9",
"|. c #E2DBBF",
" X c #D9ECBE",
".X c #DAF2BE",
"XX c #F9E7A8",
"oX c #FAE9A0",
"OX c #E8E4BA",
"+X c #E7E7B8",
"@X c #FBEDB4",
"#X c #8FABC7",
"$X c #89A6C6",
"%X c #9FB5CA",
"&X c #A3C1C2",
"*X c #BFCBCF",
"=X c #C8C8C8",
"-X c #DFDACA",
";X c #D7D4C3",
":X c LightGray",
">X c #DEDED6",
",X c #DEDEDE",
"<X c #DDDCD9",
"1X c #E5DEC2",
"2X c #E2DECD",
"3X c #DFEEC6",
"4X c #E4E3CC",
"5X c #EEEECA",
"6X c #ECECCF",
"7X c #E7EAC8",
"8X c #F0EEC7",
"9X c #F5EFCD",
"0X c #F1EDC8",
"qX c #EDF1CB",
"wX c #E1F0C1",
"eX c #F3F5CE",
"rX c #FCF2CA",
"tX c #E5E2D3",
"yX c #EEEBD4",
"uX c #EDE9DF",
"iX c #EDEDD9",
"pX c #E9E5D5",
"aX c #F2EFD5",
"sX c #F3ECDC",
"dX c #ECF3D3",
"fX c #EFF2DA",
"gX c #F5F2D3",
"hX c #F9F3D4",
"jX c #F3F1DA",
"kX c #FBF2DA",
"lX c #E4E4E4",
"zX c #EEEAE0",
"xX c #EAEAEA",
"cX c #F2EEE3",
"vX c #F5EFE6",
"bX c #F5F3E2",
"nX c #FBF8E7",
"mX c #F7F3EE",
"MX c #FAF5EC",
"NX c #FBF8E8",
"BX c #FDF9E9",
"VX c #FDF9ED",
"CX c #F2F2F2",
"ZX c #F1F1F1",
"AX c #F6F6F6",
"SX c #FCFBF7",
"DX c #FCF9F3",
"FX c #F9F9F9",
"GX c #FBFBFB",
"HX c #FEFDF9",
"JX c gray99",
"KX c #FDFDFD",
"LX c #FEFEFE",
"PX c gray100",
"IX c #FFFFFE",
"UX c #FFFFFD",
/* pixels */
"PXPXPXPXPXPXPXPXPXPXPXPXPXPXPXPXPXPXPXPXPXPXPXPXPXPXPXPXPXPXPXPX",
"PXPXPXPXPXPXPXPXPXPXPXPXPX).-.2.SXPXPXPXPXPXPXPXPXPXPXPXPXPXPXPX",
"PXPXPXPXPXPXPXPXPXPXPXPX[.'.rX] +.PXPXPXPXPXPXPXPXPXPXPXPXPXPXPX",
"PXPXPXPXPXPXPXPXPXPXPXPX2.PX! Q U PXPXPXPXPXPXPXPXPXPXPXPXPXPXPX",
"PXPXPXPXPXPXPXPXPXPXPXPX6.f.W W Y PXPXPXPXPXPXPXPXPXPXPXPXPXPXPX",
"PXPXPXPXPXPXPXPXPXPXPXPXDXB L D 8.PXPXPXPXPXPXPXPXPXPXPXPXPXPXPX",
"PXPXPXPXPXPXPXPXPXPXPXPXPXPXkXVXPXPXmX*.#.@.].PXPXPXPXPXPXPXPXPX",
"PXPXPXPXPXPXPXPXPXPXPXPXPXPXPXPXPXvX>.hXDXd.J B.PXPXPXPXPXPXPXPX",
"PXPXPXPXPXPXPX].=.*.GXPXPXPXPXPXPX@.PXf.Q Q Q I MXPXPXPXPXPXPXPX",
"PXPXPXPXPXPXPXw.@X[ 3.PXPXPXPXPXPX0.PXQ Q Q Q G ).PXPXPXPXPXPXPX",
"PXPXPXPXPXPXPXR.s.E 2.PXPXPXPXPXPXq.HXQ Q Q Q ) 9.PXPXPXPXPXPXPX",
"PXPXPXPXPXPXPX3.Y Z sXPXPXPXPXPXPXC ` Q Q Q Q Q J m Z m 5.DXPXPX",
"PXPXPXPXPXPXPXPXPXPXPXPXPXJXPXPXPX[.D Q Q Q Q Q j.PXPXh.H v sXPX",
"PXPXPXPXPXPXPXPXBXnXNXGXGXGXJXJXPXPX(.B I G Q oXBX' Q Q Q E b PX",
"PXPXPXPXPXNXbXcXzXzXzXzXcX*.,.C [.JXPXPXPX3.a.PX' Q Q Q W W L (.",
"PXE.'.;.sXuXsXgXtX>XtXkX7.`.R.( M FXGXPXPX_.Q.Q.Q Q Q Q Q W ) *.",
"PX=.Q.P `.aX*X%X#X$X#X%XX.jX^ ^ F CXDXJXPXB.XXj.Q Q Q Q Q Q Q C ",
"PXE.F A 4X&Xn.x.x.x.x.x.c.| ^ ^ x xXZXFXJX).G _ Q Q Q Q Q Q E <.",
"JXNXiXdXP.b.z.z.z.k.z.z.z.t { A ~.iXxXCXSX2.l Q Q Q Q Q Q Q L ).",
"PXbXgXI.K.q e w w r w q q r K.!.6XtXN.x :.L Q Q Q Q Q Q Q E b PX",
"NXfXgXL.6 0 7 0 9 0 8 8 6 9 6 L.gXY.%.lXW.a.Q Q Q W Q Q H v sXPX",
"NXdX3XC.4 5 X 3 4 4 5 5 4 X 4 C.wXc 2XS l l Q Q D C v n 8.SXPXPX",
"nXdX.XS.1 1 1 < 2 1 < 1 1 < 1 D.3XO.3Xd k R Q H 8.PXPXPXPXPXPXPX",
"nXdX.Xp.: $ : : : : $ : , : : p.wX%./.f j l W l _.PXPXPXPXPXPXPX",
"nXdXeXF.- - - - - - = - = - - F.9X .h f j R R Y MXPXPXPXPXPXPXPX",
"GXfXeXJ.y.% % * % * * * % % i.H.5X!.  f j l D B.PXPXPXPXPXPXPXPX",
"GXbXqXqXG.u.+ @ + + + + + u.t.OX/.;XV.} c o.[.PXPXPXPXPXPXPXPXPX",
"JXAXjXqX+XA.e.O o o o o e.s W.S } m.=X,XxXAXGXPXPXPXPXPXPXPXPXPX",
"JXFXbXaXqX0XT.Z.r.r.r.Z. .5X/ d z =X:XlXZXGXGXPXPXPXPXPXPXPXPXPX",
"PXGXAXcXyX7X9X9X+X].+X9X&.^.g f i :X,XxXAXGXPXPXPXPXPXPXPXPXPXPX",
"PXJXFXZXxXyXtX1X1X1X1X/.M.z y u p ,XxXCXGXGXPXPXPXPXPXPXPXPXPXPX",
"PXPXJXFXZXxX,XpX2X-X-X:X!.v.p } <XxXCXFXGXPXPXPXPXPXPXPXPXPXPXPX"
};
